<?xml version="1.0" encoding="UTF-8"?>
<svg id="_レイヤー_2" data-name="レイヤー 2" xmlns="http://www.w3.org/2000/svg" viewBox="0 0 279.35 64.8">
  <defs>
    <style>
      .cls-1 {
        fill: #333;
        stroke-width: 0px;
      }
    </style>
  </defs>
  <g id="design">
    <g>
      <path class="cls-1" d="M13.41.9h17.46c10.35,0,16.02,4.41,16.02,12.24,0,1.26-.18,2.7-.45,4.14l-.27,1.26c-1.53,7.02-4.86,10.89-11.25,12.78v.27c4.59,1.26,7.11,5.13,7.11,10.44,0,1.26-.18,2.7-.45,4.05l-.36,1.44c-2.43,11.61-8.82,16.38-21.42,16.38H0L13.41.9ZM20.79,54.9c5.85,0,8.91-2.43,10.17-8.19l.36-1.71c.27-1.26.36-2.34.36-3.33,0-4.14-2.52-5.67-8.64-5.67h-6.66l-3.96,18.9h8.37ZM24.39,27c6.48,0,9.9-2.52,11.16-7.92l.27-1.26c.18-.99.27-1.98.27-2.79,0-3.51-2.16-5.13-6.84-5.13h-7.29l-3.69,17.1h6.12Z"/>
      <path class="cls-1" d="M59.85.9h17.01c9.9,0,15.93,5.31,15.93,13.59,0,1.8-.27,3.42-.54,4.32l-.27,1.35c-1.53,7.29-4.68,10.8-11.7,12.78v.18c4.32,1.08,6.48,4.14,6.48,9.27,0,1.62-.27,3.51-.63,5.58l-1.71,7.65c-.54,2.43-.9,4.59-.9,6.39,0,.63.09,1.26.18,1.89h-10.08c-.18-.9-.27-1.53-.27-2.52,0-1.44.18-3.42.9-6.66l1.71-8.28c.36-1.44.54-2.61.54-3.69,0-3.87-2.34-5.22-7.92-5.22h-6.12l-5.49,26.37h-10.53L59.85.9ZM69.84,28.62c6.57,0,10.35-2.43,11.52-8.1l.63-2.61c.18-1.08.18-1.71.18-2.34,0-3.78-2.25-5.67-6.66-5.67h-7.11l-3.96,18.72h5.4Z"/>
      <path class="cls-1" d="M121.68,63.9v-12.24h-16.56l-5.13,12.24h-10.26L117.18.9h13.86l.72,63h-10.08ZM121.77,42.75l.09-31.14-13.05,31.14h12.96Z"/>
      <path class="cls-1" d="M152.73.9h12.6l7.38,41.49L181.62.9h9.36l-13.41,63h-10.17l-8.37-48.33-10.35,48.33h-9.36L152.73.9Z"/>
      <path class="cls-1" d="M201.78.9h17.73c10.17,0,15.75,5.13,15.75,13.68,0,1.62-.18,3.33-.63,5.22l-5.94,27.81c-2.43,11.61-8.82,16.29-20.97,16.29h-19.35L201.78.9ZM208.53,54.9c5.85,0,8.55-2.07,9.81-8.01l6.03-28.17c.27-1.17.36-2.16.36-3.15,0-3.87-2.07-5.67-6.84-5.67h-7.47l-9.63,45h7.74Z"/>
      <path class="cls-1" d="M235.8,50.58c0-1.35.18-2.79.45-4.32l.18-.99h9.9l-.45,1.89c-.09.72-.18,1.44-.18,2.07,0,3.87,2.61,6.84,7.92,6.84s8.91-3.51,8.91-9.27c0-4.14-2.34-7.11-9.09-11.43-7.92-4.95-10.62-10.08-10.62-16.11,0-11.7,7.56-19.26,18.99-19.26,10.44,0,17.55,4.95,17.55,14.13,0,1.53-.18,2.97-.54,4.5h-9.81l.18-.9c.18-.81.27-1.62.27-2.34,0-4.32-3.33-6.66-7.74-6.66-5.04,0-8.37,3.51-8.37,8.64,0,3.96,2.52,7.02,9.36,11.34,7.74,4.95,10.35,10.08,10.35,16.11,0,12.15-7.29,19.98-19.35,19.98-10.62,0-17.91-4.95-17.91-14.22Z"/>
    </g>
  </g>
</svg>