<?xml version="1.0" encoding="UTF-8"?>
<svg id="_レイヤー_2" data-name="レイヤー 2" xmlns="http://www.w3.org/2000/svg" viewBox="0 0 656.36 64.8">
  <defs>
    <style>
      .cls-1 {
        fill: #333;
        stroke-width: 0px;
      }
    </style>
  </defs>
  <g id="design">
    <g>
      <path class="cls-1" d="M13.41.9h33.39l-1.98,9h-22.86l-3.78,17.55h18.45l-1.89,9h-18.45l-3.87,18.45h22.86l-1.89,9H0L13.41.9Z"/>
      <path class="cls-1" d="M52.29.9h10.08l-.63,50.94L82.8.9h10.17l-27,62.91h-13.32l-.36-62.91Z"/>
      <path class="cls-1" d="M100.53.9h33.39l-1.98,9h-22.86l-3.78,17.55h18.45l-1.89,9h-18.45l-3.87,18.45h22.86l-1.89,9h-33.39L100.53.9Z"/>
      <path class="cls-1" d="M142.2.9h12.6l7.38,41.49L171.09.9h9.36l-13.41,63h-10.17l-8.37-48.33-10.35,48.33h-9.36L142.2.9Z"/>
      <path class="cls-1" d="M200.07,9.9h-13.86l1.98-9h38.07l-1.89,9h-13.86l-11.52,54h-10.44l11.52-54Z"/>
      <path class="cls-1" d="M281.7,36.09h-3.24l-3.51,16.11c-.99,4.5-1.44,8.28-1.35,11.7h-9.27c-.09-1.17,0-2.97.36-4.95-3.15,3.87-7.83,5.85-13.41,5.85-7.65,0-13.32-3.78-13.32-11.7,0-1.44.18-3.06.63-4.77l.9-4.32c1.26-5.76,4.95-10.62,12.87-12.69v-.18c-4.95-1.71-7.29-5.58-7.29-10.53,0-1.35.18-2.61.45-3.87l.36-1.89C247.95,5.58,253.89.09,264.87.09c9.99,0,17.55,4.41,17.55,14.85,0,1.08-.09,2.07-.27,3.15h-9.54c.18-1.26.36-2.34.36-3.33,0-4.5-3.6-6.21-7.83-6.21-5.13,0-8.01,2.52-9.18,7.38l-.54,2.16c-.18.99-.45,2.07-.45,3.33,0,4.05,2.52,6.12,7.92,6.12h20.7l-1.89,8.55ZM268.29,36.09h-6.84c-6.57,0-10.8,3.33-11.88,8.28l-.81,3.51c-.09.54-.27,1.35-.27,2.34,0,3.96,2.97,6.03,7.47,6.03s8.01-1.98,9.54-7.02l2.79-13.14Z"/>
      <path class="cls-1" d="M302.58,50.13c0-1.53.18-3.24.54-4.95l6.3-29.43c2.16-10.17,8.64-15.75,19.17-15.75,9.72,0,17.28,4.68,17.28,14.67,0,1.53-.18,3.24-.54,4.95l-.63,2.7h-9.81l.9-4.14c.18-.72.27-1.62.27-2.61,0-4.5-3.06-6.84-7.47-6.84s-7.74,2.61-8.91,7.74l-6.39,30.15c-.18.99-.27,1.89-.27,2.79,0,4.23,2.88,6.66,7.38,6.66s7.83-2.7,8.91-7.74l1.71-7.65h9.81l-1.71,8.28c-2.25,10.26-8.73,15.84-19.26,15.84-9.63,0-17.28-4.68-17.28-14.67Z"/>
      <path class="cls-1" d="M372.86,63.9v-12.24h-16.56l-5.13,12.24h-10.26L368.36.9h13.86l.72,63h-10.08ZM372.95,42.75l.09-31.14-13.05,31.14h12.96Z"/>
      <path class="cls-1" d="M403.82.9h14.67l.36,46.89L439.37.9h15.12l-13.41,63h-10.08l10.62-49.59-21.87,49.59h-8.55l-.9-49.59-10.62,49.59h-9.27L403.82.9Z"/>
      <path class="cls-1" d="M465.11.9h17.01c9.9,0,15.93,5.31,15.93,13.59,0,1.8-.36,3.51-.54,4.5l-.72,3.24c-2.52,11.88-7.38,16.2-21.06,16.2h-8.19l-5.31,25.47h-10.53L465.11.9ZM476.72,29.43c6.12,0,8.46-1.98,9.81-8.28l.72-3.24c.18-1.08.18-1.71.18-2.34,0-3.78-2.25-5.67-6.66-5.67h-7.11l-4.14,19.53h7.2Z"/>
      <path class="cls-1" d="M520.64,63.9v-12.24h-16.56l-5.13,12.24h-10.26L516.14.9h13.86l.72,63h-10.08ZM520.73,42.75l.09-31.14-13.05,31.14h12.96Z"/>
      <path class="cls-1" d="M551.69.9h10.53l-13.41,63h-10.53l13.41-63Z"/>
      <path class="cls-1" d="M605.42,14.85c0,1.53-.18,3.06-.54,4.86l-.36,1.62h-9.81l.54-2.34c.27-1.26.36-1.89.36-2.97,0-4.68-3.06-7.02-7.74-7.02-5.04,0-8.01,2.61-9.09,7.56l-6.3,29.97c-.18.72-.36,1.62-.36,2.61,0,4.41,3.24,6.66,7.92,6.66,5.04,0,7.83-2.61,8.91-7.56l2.16-10.26h-7.92l1.89-9.36h18l-4.41,20.43c-2.16,10.08-8.91,15.75-19.35,15.75-9.72,0-17.55-4.77-17.55-14.67,0-1.53.18-3.24.54-4.95l6.12-29.34c2.16-10.17,8.91-15.84,19.44-15.84,9.81,0,17.55,4.86,17.55,14.85Z"/>
      <path class="cls-1" d="M618.11.9h12.6l7.38,41.49,8.91-41.49h9.36l-13.41,63h-10.17l-8.37-48.33-10.35,48.33h-9.36l13.41-63Z"/>
    </g>
  </g>
</svg>