<?xml version="1.0" encoding="UTF-8"?>
<svg id="_レイヤー_2" data-name="レイヤー 2" xmlns="http://www.w3.org/2000/svg" viewBox="0 0 200.52 64.8">
  <defs>
    <style>
      .cls-1 {
        fill: #333;
        stroke-width: 0px;
      }
    </style>
  </defs>
  <g id="design">
    <g>
      <path class="cls-1" d="M13.41.9h12.6l7.38,41.49L42.3.9h9.36l-13.41,63h-10.17L19.71,15.57l-10.35,48.33H0L13.41.9Z"/>
      <path class="cls-1" d="M62.46.9h33.39l-1.98,9h-22.86l-3.78,17.55h18.45l-1.89,9h-18.45l-3.87,18.45h22.86l-1.89,9h-33.39L62.46.9Z"/>
      <path class="cls-1" d="M101.61.9h9.54l-3.51,50.13L126.18.9h10.35l-2.7,50.13L151.65.9h9.36l-22.77,63h-12.69l2.52-45.72-17.1,45.72h-13.41L101.61.9Z"/>
      <path class="cls-1" d="M156.96,50.58c0-1.35.18-2.79.45-4.32l.18-.99h9.9l-.45,1.89c-.09.72-.18,1.44-.18,2.07,0,3.87,2.61,6.84,7.92,6.84s8.91-3.51,8.91-9.27c0-4.14-2.34-7.11-9.09-11.43-7.92-4.95-10.62-10.08-10.62-16.11,0-11.7,7.56-19.26,18.99-19.26,10.44,0,17.55,4.95,17.55,14.13,0,1.53-.18,2.97-.54,4.5h-9.81l.18-.9c.18-.81.27-1.62.27-2.34,0-4.32-3.33-6.66-7.74-6.66-5.04,0-8.37,3.51-8.37,8.64,0,3.96,2.52,7.02,9.36,11.34,7.74,4.95,10.35,10.08,10.35,16.11,0,12.15-7.29,19.98-19.35,19.98-10.62,0-17.91-4.95-17.91-14.22Z"/>
    </g>
  </g>
</svg>