<?xml version="1.0" encoding="UTF-8"?>
<svg id="_レイヤー_2" data-name="レイヤー 2" xmlns="http://www.w3.org/2000/svg" viewBox="0 0 598.32 64.8">
  <defs>
    <style>
      .cls-1 {
        fill: #333;
        stroke-width: 0px;
      }
    </style>
  </defs>
  <g id="design">
    <g>
      <path class="cls-1" d="M0,50.04c0-1.71.27-3.42.63-5.04L6.75,15.84C8.91,5.67,15.39,0,26.37,0c9.9,0,18,4.77,18,14.76,0,1.71-.18,3.42-.54,4.95l-6.12,29.16c-2.16,10.17-8.73,15.93-19.62,15.93-9.9,0-18.09-4.68-18.09-14.76ZM27.36,48.15l6.3-29.88c.18-.9.36-1.71.36-2.61,0-4.41-3.24-6.66-7.92-6.66s-7.92,2.52-9,7.56l-6.3,29.88c-.09.63-.36,1.62-.36,2.7,0,4.5,3.33,6.66,7.92,6.66,4.95,0,7.92-2.52,9-7.65Z"/>
      <path class="cls-1" d="M65.7,9.9h-13.86l1.98-9h38.07l-1.89,9h-13.86l-11.52,54h-10.44l11.52-54Z"/>
      <path class="cls-1" d="M99.54.9h10.53l-5.76,26.55h16.56L126.63.9h10.44l-13.41,63h-10.44l5.76-27.45h-16.56l-5.76,27.45h-10.53L99.54.9Z"/>
      <path class="cls-1" d="M147.78.9h33.39l-1.98,9h-22.86l-3.78,17.55h18.45l-1.89,9h-18.45l-3.87,18.45h22.86l-1.89,9h-33.39L147.78.9Z"/>
      <path class="cls-1" d="M189.45.9h17.01c9.9,0,15.93,5.31,15.93,13.59,0,1.8-.27,3.42-.54,4.32l-.27,1.35c-1.53,7.29-4.68,10.8-11.7,12.78v.18c4.32,1.08,6.48,4.14,6.48,9.27,0,1.62-.27,3.51-.63,5.58l-1.71,7.65c-.54,2.43-.9,4.59-.9,6.39,0,.63.09,1.26.18,1.89h-10.08c-.18-.9-.27-1.53-.27-2.52,0-1.44.18-3.42.9-6.66l1.71-8.28c.36-1.44.54-2.61.54-3.69,0-3.87-2.34-5.22-7.92-5.22h-6.12l-5.49,26.37h-10.53L189.45.9ZM199.44,28.62c6.57,0,10.35-2.43,11.52-8.1l.63-2.61c.18-1.08.18-1.71.18-2.34,0-3.78-2.25-5.67-6.66-5.67h-7.11l-3.96,18.72h5.4Z"/>
      <path class="cls-1" d="M240.84,50.13c0-1.53.18-3.24.54-4.95l6.3-29.43c2.16-10.17,8.64-15.75,19.17-15.75,9.72,0,17.28,4.68,17.28,14.67,0,1.53-.18,3.24-.54,4.95l-.63,2.7h-9.81l.9-4.14c.18-.72.27-1.62.27-2.61,0-4.5-3.06-6.84-7.47-6.84s-7.74,2.61-8.91,7.74l-6.39,30.15c-.18.99-.27,1.89-.27,2.79,0,4.23,2.88,6.66,7.38,6.66s7.83-2.7,8.91-7.74l1.71-7.65h9.81l-1.71,8.28c-2.25,10.26-8.73,15.84-19.26,15.84-9.63,0-17.28-4.68-17.28-14.67Z"/>
      <path class="cls-1" d="M285.03,50.04c0-1.71.27-3.42.63-5.04l6.12-29.16c2.16-10.17,8.64-15.84,19.62-15.84,9.9,0,18,4.77,18,14.76,0,1.71-.18,3.42-.54,4.95l-6.12,29.16c-2.16,10.17-8.73,15.93-19.62,15.93-9.9,0-18.09-4.68-18.09-14.76ZM312.39,48.15l6.3-29.88c.18-.9.36-1.71.36-2.61,0-4.41-3.24-6.66-7.92-6.66s-7.92,2.52-9,7.56l-6.3,29.88c-.09.63-.36,1.62-.36,2.7,0,4.5,3.33,6.66,7.92,6.66,4.95,0,7.92-2.52,9-7.65Z"/>
      <path class="cls-1" d="M342.36.9h12.6l7.38,41.49L371.25.9h9.36l-13.41,63h-10.17l-8.37-48.33-10.35,48.33h-9.36L342.36.9Z"/>
      <path class="cls-1" d="M400.23,9.9h-13.86l1.98-9h38.07l-1.89,9h-13.86l-11.52,54h-10.44l11.52-54Z"/>
      <path class="cls-1" d="M434.07.9h33.39l-1.98,9h-22.86l-3.78,17.55h18.45l-1.89,9h-18.45l-3.87,18.45h22.86l-1.89,9h-33.39L434.07.9Z"/>
      <path class="cls-1" d="M475.74.9h12.6l7.38,41.49L504.63.9h9.36l-13.41,63h-10.17l-8.37-48.33-10.35,48.33h-9.36L475.74.9Z"/>
      <path class="cls-1" d="M533.61,9.9h-13.86l1.98-9h38.07l-1.89,9h-13.86l-11.52,54h-10.44l11.52-54Z"/>
      <path class="cls-1" d="M554.76,50.58c0-1.35.18-2.79.45-4.32l.18-.99h9.9l-.45,1.89c-.09.72-.18,1.44-.18,2.07,0,3.87,2.61,6.84,7.92,6.84s8.91-3.51,8.91-9.27c0-4.14-2.34-7.11-9.09-11.43-7.92-4.95-10.62-10.08-10.62-16.11,0-11.7,7.56-19.26,18.99-19.26,10.44,0,17.55,4.95,17.55,14.13,0,1.53-.18,2.97-.54,4.5h-9.81l.18-.9c.18-.81.27-1.62.27-2.34,0-4.32-3.33-6.66-7.74-6.66-5.04,0-8.37,3.51-8.37,8.64,0,3.96,2.52,7.02,9.36,11.34,7.74,4.95,10.35,10.08,10.35,16.11,0,12.15-7.29,19.98-19.35,19.98-10.62,0-17.91-4.95-17.91-14.22Z"/>
    </g>
  </g>
</svg>