<?xml version="1.0" encoding="UTF-8"?>
<svg id="_レイヤー_2" data-name="レイヤー 2" xmlns="http://www.w3.org/2000/svg" viewBox="0 0 465.47 64.8">
  <defs>
    <style>
      .cls-1 {
        fill: #333;
        stroke-width: 0px;
      }
    </style>
  </defs>
  <g id="design">
    <g>
      <path class="cls-1" d="M0,50.58c0-1.35.18-2.79.45-4.32l.18-.99h9.9l-.45,1.89c-.09.72-.18,1.44-.18,2.07,0,3.87,2.61,6.84,7.92,6.84s8.91-3.51,8.91-9.27c0-4.14-2.34-7.11-9.09-11.43-7.92-4.95-10.62-10.08-10.62-16.11C7.02,7.56,14.58,0,26.01,0c10.44,0,17.55,4.95,17.55,14.13,0,1.53-.18,2.97-.54,4.5h-9.81l.18-.9c.18-.81.27-1.62.27-2.34,0-4.32-3.33-6.66-7.74-6.66-5.04,0-8.37,3.51-8.37,8.64,0,3.96,2.52,7.02,9.36,11.34,7.74,4.95,10.35,10.08,10.35,16.11,0,12.15-7.29,19.98-19.35,19.98-10.62,0-17.91-4.95-17.91-14.22Z"/>
      <path class="cls-1" d="M44.28,50.04c0-1.71.27-3.42.63-5.04l6.12-29.16C53.19,5.67,59.67,0,70.65,0c9.9,0,18,4.77,18,14.76,0,1.71-.18,3.42-.54,4.95l-6.12,29.16c-2.16,10.17-8.73,15.93-19.62,15.93-9.9,0-18.09-4.68-18.09-14.76ZM71.64,48.15l6.3-29.88c.18-.9.36-1.71.36-2.61,0-4.41-3.24-6.66-7.92-6.66s-7.92,2.52-9,7.56l-6.3,29.88c-.09.63-.36,1.62-.36,2.7,0,4.5,3.33,6.66,7.92,6.66,4.95,0,7.92-2.52,9-7.65Z"/>
      <path class="cls-1" d="M90.36,50.13c0-1.53.18-3.24.54-4.95l6.3-29.43c2.16-10.17,8.64-15.75,19.17-15.75,9.72,0,17.28,4.68,17.28,14.67,0,1.53-.18,3.24-.54,4.95l-.63,2.7h-9.81l.9-4.14c.18-.72.27-1.62.27-2.61,0-4.5-3.06-6.84-7.47-6.84s-7.74,2.61-8.91,7.74l-6.39,30.15c-.18.99-.27,1.89-.27,2.79,0,4.23,2.88,6.66,7.38,6.66s7.83-2.7,8.91-7.74l1.71-7.65h9.81l-1.71,8.28c-2.25,10.26-8.73,15.84-19.26,15.84-9.63,0-17.28-4.68-17.28-14.67Z"/>
      <path class="cls-1" d="M145.62.9h10.53l-13.41,63h-10.53L145.62.9Z"/>
      <path class="cls-1" d="M182.07,63.9v-12.24h-16.56l-5.13,12.24h-10.26L177.57.9h13.86l.72,63h-10.08ZM182.16,42.75l.09-31.14-13.05,31.14h12.96Z"/>
      <path class="cls-1" d="M213.12.9h10.53l-11.52,54h21.78l-1.89,9h-32.31L213.12.9Z"/>
      <path class="cls-1" d="M269.36.9h14.67l.36,46.89L304.91.9h15.12l-13.41,63h-10.08l10.62-49.59-21.87,49.59h-8.55l-.9-49.59-10.62,49.59h-9.27L269.36.9Z"/>
      <path class="cls-1" d="M330.65.9h33.39l-1.98,9h-22.86l-3.78,17.55h18.45l-1.89,9h-18.45l-3.87,18.45h22.86l-1.89,9h-33.39L330.65.9Z"/>
      <path class="cls-1" d="M372.32.9h17.73c10.17,0,15.75,5.13,15.75,13.68,0,1.62-.18,3.33-.63,5.22l-5.94,27.81c-2.43,11.61-8.82,16.29-20.97,16.29h-19.35L372.32.9ZM379.07,54.9c5.85,0,8.55-2.07,9.81-8.01l6.03-28.17c.27-1.17.36-2.16.36-3.15,0-3.87-2.07-5.67-6.84-5.67h-7.47l-9.63,45h7.74Z"/>
      <path class="cls-1" d="M418.94.9h10.53l-13.41,63h-10.53L418.94.9Z"/>
      <path class="cls-1" d="M455.39,63.9v-12.24h-16.56l-5.13,12.24h-10.26L450.89.9h13.86l.72,63h-10.08ZM455.48,42.75l.09-31.14-13.05,31.14h12.96Z"/>
    </g>
  </g>
</svg>