<?xml version="1.0" encoding="UTF-8"?>
<svg id="_レイヤー_2" data-name="レイヤー 2" xmlns="http://www.w3.org/2000/svg" viewBox="0 0 180 60">
  <defs>
    <style>
      .cls-1 {
        fill: #98c9e6;
      }

      .cls-1, .cls-2, .cls-3 {
        stroke-width: 0px;
      }

      .cls-2 {
        fill: #007ac1;
      }

      .cls-3 {
        fill: #fff;
      }
    </style>
  </defs>
  <g id="mask">
    <g>
      <rect class="cls-2" width="180" height="60"/>
      <g>
        <path class="cls-1" d="M61.74,14.82c4.51,0,6.75,2.7,6.75,7.42v1.22h-4.38v-1.52c0-2.11-.84-2.91-2.32-2.91s-2.36.8-2.36,2.82c0,2.15,1.05,3.67,4.09,6.32,3.88,3.42,5.14,5.82,5.14,9.49,0,4.81-2.45,7.5-7,7.5s-6.83-2.7-6.83-7.42v-1.69h4.38v2.02c0,2.11.93,2.87,2.4,2.87s2.45-.76,2.45-2.95c0-2.45-1.01-3.96-4.05-6.62-3.88-3.42-5.19-5.86-5.19-9.23,0-4.64,2.4-7.34,6.91-7.34M61.74,14.57c-4.55,0-7.16,2.76-7.16,7.59,0,3.53,1.38,5.99,5.27,9.42,3.07,2.69,3.96,4.13,3.96,6.43,0,2.42-1.25,2.7-2.2,2.7-1.49,0-2.15-.81-2.15-2.62v-2.27h-4.88v1.94c0,4.95,2.51,7.67,7.08,7.67s7.25-2.75,7.25-7.75c0-3.79-1.32-6.23-5.23-9.67-3.07-2.69-4-4.12-4-6.14,0-1.76.67-2.57,2.11-2.57.96,0,2.07.3,2.07,2.66v1.77h4.88v-1.47c0-4.95-2.48-7.67-7-7.67h0Z"/>
        <path class="cls-1" d="M77.76,14.82c4.47,0,6.83,2.7,6.83,7.25v3.12h-4.38v-3.42c0-1.94-.93-2.74-2.32-2.74s-2.32.8-2.32,2.74v16.48c0,1.94.93,2.7,2.32,2.7s2.32-.76,2.32-2.7v-4.3h4.38v3.96c0,4.55-2.36,7.25-6.83,7.25s-6.83-2.7-6.83-7.25v-15.85c0-4.55,2.36-7.25,6.83-7.25M77.76,14.57c-4.5,0-7.08,2.73-7.08,7.5v15.85c0,4.77,2.58,7.5,7.08,7.5s7.08-2.73,7.08-7.5v-4.21h-4.88v4.55c0,1.65-.68,2.45-2.07,2.45s-2.07-.8-2.07-2.45v-16.48c0-1.65.7-2.49,2.07-2.49s2.07.84,2.07,2.49v3.67h4.88v-3.37c0-4.77-2.58-7.5-7.08-7.5h0Z"/>
        <path class="cls-1" d="M101.57,15.24v29.51h-4.64v-13.28h-4.97v13.28h-4.64V15.24h4.64v12.02h4.97v-12.02h4.64M101.82,14.99h-5.14v12.02h-4.47v-12.02h-5.14v30.01h5.14v-13.28h4.47v13.28h5.14V14.99h0Z"/>
        <path class="cls-1" d="M117.68,15.24v4.22h-8.01v7.8h6.37v4.22h-6.37v9.06h8.01v4.22h-12.65V15.24h12.65M117.93,14.99h-13.15v30.01h13.15v-4.72h-8.01v-8.56h6.37v-4.72h-6.37v-7.3h8.01v-4.72h0Z"/>
        <path class="cls-1" d="M125.18,40.12v4.64h-4.64v-4.64h4.64M125.43,39.87h-5.14v5.14h5.14v-5.14h0Z"/>
      </g>
      <g>
        <path class="cls-3" d="M43.91,29.26v1.58h2.98v1.53h-2.98v1.51c0,.5.06.59.45.59h1.08c.36,0,.43-.28.49-1.6.35.28,1.02.56,1.5.66-.17,1.85-.6,2.41-1.83,2.41h-1.53c-1.51,0-1.89-.49-1.89-2.05v-1.53h-1.85c-.31,1.47-1.23,2.86-3.82,3.73-.21-.38-.71-1.02-1.06-1.33,1.93-.59,2.77-1.46,3.12-2.4h-2.77v-1.53h3v-1.58h-1.18v-.46c-.59.43-1.22.8-1.86,1.11-.22-.38-.69-.95-1.01-1.26.81-.34,1.61-.83,2.33-1.44-.36-.36-.92-.84-1.39-1.19l1.05-.87c.42.29.95.7,1.34,1.04.34-.39.63-.81.88-1.26h-2.86v-1.43h3.66l.29-.06,1.11.52c-.49,1.47-1.29,2.72-2.27,3.73h5.07c-1.09-1.18-1.93-2.63-2.55-4.29l1.5-.42c.2.52.42,1.02.7,1.5.46-.42.92-.91,1.25-1.3l1.26.9c-.57.52-1.22,1.06-1.79,1.48.2.25.41.49.62.73.57-.46,1.19-1.04,1.58-1.51l1.22.87c-.57.53-1.25,1.08-1.86,1.51.66.53,1.39.97,2.19,1.29-.39.32-.9.98-1.15,1.43-.62-.29-1.19-.64-1.72-1.05v.45h-1.27ZM42.17,29.26h-1.72v1.58h1.72v-1.58Z"/>
        <path class="cls-3" d="M55.11,30.58c-.22,2.82-.84,4.59-4.66,5.5-.15-.43-.57-1.09-.91-1.44,3.32-.64,3.67-1.9,3.84-4.06h1.74ZM55.15,25.59h-5.24v-1.51h5.24v-1.11h1.72v1.11h5.38v1.51h-5.38v.91h4.09v1.46h-9.72v-1.46h3.91v-.91ZM60.39,31.63v-1.48h-8.69v1.48h-1.61v-2.98h11.98v2.98h-1.68ZM60.47,34.37c.46,0,.55-.24.6-1.67.34.27,1.05.52,1.5.63-.18,2.02-.62,2.54-1.93,2.54h-1.81c-1.62,0-2.03-.48-2.03-1.98v-3.32h1.68v3.31c0,.43.08.49.59.49h1.4Z"/>
        <path class="cls-3" d="M74.36,26.19c-.48,1.09-1.26,2.59-2.2,3.85,1.39,1.2,3.08,3,3.91,4.01l-1.6,1.39c-.91-1.26-2.21-2.69-3.53-3.96-1.48,1.57-3.35,3.03-5.27,3.94l-1.44-1.51c2.26-.84,4.43-2.55,5.74-4.02.92-1.05,1.78-2.44,2.09-3.43h-4.75c-.59,0-1.36.08-1.65.1v-1.99c.38.06,1.23.1,1.65.1h4.94c.6,0,1.16-.08,1.44-.18l1.15.85c-.11.15-.36.59-.49.87Z"/>
        <path class="cls-3" d="M83.22,24.99c-.11.29-.24.66-.39,1.02h6.04c.36,0,.99-.01,1.46-.1v1.92c-.52-.06-1.13-.06-1.46-.06h-1.96c-.25,3.71-1.71,6.22-4.24,7.82l-1.89-1.27c.5-.2.99-.49,1.33-.77,1.47-1.12,2.63-2.84,2.86-5.77h-2.96c-.56,1.02-1.43,2.21-2.27,2.94l-1.75-1.06c.99-.74,1.89-2,2.42-2.89.39-.64.64-1.37.81-1.9.17-.46.27-1.01.29-1.44l2.17.43c-.17.35-.35.84-.46,1.13Z"/>
        <path class="cls-3" d="M96.8,28.96l-1.02,1.57c-.8-.56-2.25-1.5-3.19-2l1.01-1.54c.95.5,2.49,1.47,3.21,1.97ZM97.92,32.16c2.38-1.33,4.34-3.25,5.45-5.25l1.08,1.9c-1.29,1.95-3.28,3.71-5.56,5.04-1.43.8-3.45,1.5-4.68,1.72l-1.05-1.83c1.57-.27,3.25-.74,4.76-1.58ZM98.94,25.8l-1.04,1.54c-.78-.55-2.24-1.48-3.17-2l1.01-1.54c.92.5,2.47,1.48,3.19,2ZM103.12,26.23l-1.22.52c-.41-.88-.73-1.48-1.23-2.2l1.18-.49c.39.59.95,1.53,1.27,2.17ZM105.08,25.48l-1.19.53c-.45-.88-.8-1.43-1.32-2.13l1.19-.49c.43.56.98,1.47,1.32,2.09Z"/>
        <path class="cls-3" d="M114.57,28.73c-.11.83-.48,3.24-.69,4.57h.9c.36,0,1.01-.01,1.37-.06v1.81c-.28-.01-.97-.04-1.34-.04h-7.37c-.5,0-.85.01-1.39.04v-1.82c.38.04.9.07,1.39.07h4.54c.2-1.19.5-3.18.55-3.96h-3.78c-.45,0-.99.04-1.4.07v-1.85c.36.04,1.01.08,1.39.08h3.59c.29,0,.87-.06,1.04-.15l1.36.66c-.07.18-.11.45-.14.59Z"/>
        <path class="cls-3" d="M121.06,28.42h7.52c.66,0,1.27-.06,1.64-.08v2.2c-.34-.01-1.05-.07-1.64-.07h-7.52c-.8,0-1.74.03-2.26.07v-2.2c.5.04,1.53.08,2.26.08Z"/>
        <path class="cls-3" d="M134.72,30.95c.39-1.2.41-3.85.41-5.55,0-.56-.04-.94-.13-1.29h2.06c-.01.07-.1.69-.1,1.27,0,1.65-.04,4.61-.42,6.02-.42,1.58-1.3,2.96-2.49,4.02l-1.71-1.13c1.23-.87,1.99-2.16,2.38-3.35ZM138.94,33.48v-8.17c0-.63-.1-1.16-.11-1.2h2.09s-.1.59-.1,1.22v7.33c1.13-.49,2.52-1.6,3.46-2.96l1.08,1.54c-1.16,1.51-3.18,3.03-4.75,3.82-.31.17-.48.31-.6.42l-1.18-.97c.06-.27.11-.66.11-1.04Z"/>
      </g>
    </g>
  </g>
</svg>