<?xml version="1.0" encoding="UTF-8"?>
<svg id="_レイヤー_2" data-name="レイヤー 2" xmlns="http://www.w3.org/2000/svg" viewBox="0 0 180 60">
  <defs>
    <style>
      .cls-1 {
        fill: #98c9e6;
      }

      .cls-1, .cls-2, .cls-3 {
        stroke-width: 0px;
      }

      .cls-2 {
        fill: #007ac1;
      }

      .cls-3 {
        fill: #fff;
      }
    </style>
  </defs>
  <g id="mask">
    <g>
      <rect class="cls-2" width="180" height="60"/>
      <g>
        <path class="cls-1" d="M72.36,15.24v29.51h-4.38v-22.34l-3.46,22.34h-3.88l-3.46-22.34v22.34h-4.05V15.24h6.53l3.08,21.42,3.08-21.42h6.53M72.61,14.99h-7l-.03.21-2.83,19.7-2.83-19.7-.03-.21h-7v30.01h4.55v-19.34l2.96,19.13.03.21h4.31l.03-.21,2.96-19.13v19.34h4.88V14.99h0Z"/>
        <path class="cls-1" d="M85.64,15.24l4.81,29.51h-4.64l-.8-5.78h-5.35l-.8,5.78h-4.3l4.81-29.51h6.28M80.24,34.97h4.17l-2.11-14.88-2.07,14.88M85.85,14.99h-6.71l-.03.21-4.81,29.51-.05.29h4.81l.03-.22.77-5.56h4.92l.77,5.56.03.22h5.15l-.05-.29-4.81-29.51-.03-.21h0ZM80.53,34.72l1.78-12.83,1.82,12.83h-3.6Z"/>
        <path class="cls-1" d="M97.27,15.24v25.3h7.63v4.22h-12.27V15.24h4.64M97.52,14.99h-5.14v30.01h12.77v-4.72h-7.63V14.99h0Z"/>
        <path class="cls-1" d="M111.77,15.24v25.3h7.63v4.22h-12.27V15.24h4.64M112.02,14.99h-5.14v30.01h12.77v-4.72h-7.63V14.99h0Z"/>
        <path class="cls-1" d="M126.86,40.12v4.64h-4.64v-4.64h4.64M127.11,39.87h-5.14v5.14h5.14v-5.14h0Z"/>
      </g>
      <g>
        <path class="cls-3" d="M35.56,25.15h2.84c.43,0,.91-.06,1.22-.15l1.43.88c-.15.27-.34.64-.46.99-.38,1.13-1.08,2.63-2.07,4.03.6.43,1.15.84,1.55,1.18l-1.33,1.58c-.38-.35-.9-.78-1.47-1.25-1.23,1.3-2.83,2.49-5.01,3.32l-1.62-1.41c2.42-.74,3.98-1.88,5.14-3.04-.91-.67-1.83-1.3-2.55-1.75l1.25-1.27c.74.42,1.62.99,2.51,1.58.73-1.01,1.33-2.23,1.54-3.1h-4.01c-.98,1.3-2.28,2.65-3.7,3.63l-1.51-1.16c2.45-1.53,3.75-3.45,4.46-4.66.22-.34.52-.98.64-1.46l2.03.63c-.35.49-.7,1.12-.87,1.43Z"/>
        <path class="cls-3" d="M49.17,24.83c-.01.43-.03.85-.06,1.26h2.63c.35,0,.71-.04,1.05-.1l1.22.59c-.04.22-.1.59-.1.74-.06,1.51-.22,5.42-.83,6.85-.31.71-.84,1.08-1.81,1.08-.8,0-1.64-.06-2.31-.11l-.22-1.88c.69.13,1.41.2,1.96.2.45,0,.64-.15.8-.49.41-.88.59-3.68.59-5.2h-3.15c-.52,3.7-1.85,5.9-4.36,7.68l-1.62-1.32c.57-.32,1.27-.8,1.83-1.37,1.3-1.29,2-2.86,2.31-4.99h-1.85c-.48,0-1.25,0-1.85.06v-1.83c.59.06,1.32.1,1.85.1h2c.01-.39.03-.8.03-1.22,0-.31-.04-.95-.1-1.29h2.06c-.04.32-.07.91-.08,1.25Z"/>
        <path class="cls-3" d="M67.53,28.73c-.42,1.36-1.02,2.72-2.07,3.88-1.42,1.57-3.21,2.52-5,3.03l-1.39-1.58c2.1-.43,3.78-1.36,4.85-2.45.76-.77,1.19-1.64,1.44-2.42h-6.77c-.34,0-1.04.01-1.62.07v-1.82c.59.04,1.19.08,1.62.08h6.93c.45,0,.83-.06,1.02-.14l1.25.77c-.1.18-.21.43-.27.59ZM59.71,24.15h5.39c.43,0,1.12-.01,1.51-.07v1.81c-.38-.03-1.04-.04-1.54-.04h-5.36c-.45,0-1.05.01-1.46.04v-1.81c.39.06.98.07,1.46.07Z"/>
        <path class="cls-3" d="M72.36,25.42c0-.49-.04-1.19-.14-1.68h2.19c-.06.49-.13,1.11-.13,1.68v2.07c1.88.55,4.57,1.54,5.85,2.17l-.8,1.93c-1.44-.76-3.54-1.57-5.06-2.09v3.96c0,.41.07,1.39.13,1.96h-2.19c.08-.56.14-1.4.14-1.96v-8.05Z"/>
        <path class="cls-3" d="M92.52,33.73l-.77,1.75c-1.89-.78-6.32-1.75-8.56-2.09l.7-1.77c2.4.38,6.71,1.39,8.63,2.1ZM91.93,29.33l-.69,1.75c-1.61-.62-5.2-1.43-7.28-1.76l.64-1.7c2,.34,5.56,1.09,7.33,1.71ZM92.88,25.5l-.71,1.75c-1.62-.6-5.6-1.5-7.58-1.75l.66-1.65c1.83.22,5.87,1.04,7.63,1.65Z"/>
        <path class="cls-3" d="M98.37,28.42h7.52c.66,0,1.28-.06,1.64-.08v2.2c-.34-.01-1.05-.07-1.64-.07h-7.52c-.8,0-1.74.03-2.26.07v-2.2c.5.04,1.53.08,2.26.08Z"/>
        <path class="cls-3" d="M112.54,24.59h6.74c.48,0,.94-.03,1.26-.07v1.75c-.36-.01-.76-.04-1.26-.04h-3.29v2.38h4.23c.29,0,.99-.03,1.36-.06v1.79c-.38-.04-1.01-.04-1.32-.04h-4.27v2.14c0,.77.48,1.05,1.6,1.05,1.26,0,2.49-.08,3.61-.2l-.13,1.89c-.91.06-2.49.11-3.81.11-2.56,0-3.19-.88-3.19-2.3v-2.7h-2.28c-.41,0-1.11.04-1.53.07v-1.83c.39.03,1.09.07,1.53.07h2.28v-2.38h-1.53c-.5,0-.95.01-1.36.04v-1.75c.41.03.85.07,1.36.07Z"/>
        <path class="cls-3" d="M126.59,28.42h7.52c.66,0,1.28-.06,1.64-.08v2.2c-.34-.01-1.05-.07-1.64-.07h-7.52c-.8,0-1.74.03-2.26.07v-2.2c.5.04,1.53.08,2.26.08Z"/>
        <path class="cls-3" d="M140.25,30.95c.39-1.21.41-3.85.41-5.55,0-.56-.04-.94-.13-1.29h2.06c-.01.07-.1.69-.1,1.27,0,1.65-.04,4.61-.42,6.02-.42,1.58-1.3,2.96-2.49,4.02l-1.71-1.13c1.23-.87,1.99-2.16,2.38-3.35ZM144.47,33.48v-8.17c0-.63-.1-1.16-.11-1.2h2.09s-.1.59-.1,1.22v7.33c1.13-.49,2.52-1.6,3.46-2.96l1.08,1.54c-1.16,1.51-3.18,3.03-4.75,3.82-.31.17-.48.31-.6.42l-1.18-.97c.06-.27.11-.66.11-1.04Z"/>
      </g>
    </g>
  </g>
</svg>