<?xml version="1.0" encoding="UTF-8"?>
<svg id="_レイヤー_2" data-name="レイヤー 2" xmlns="http://www.w3.org/2000/svg" viewBox="0 0 180 60">
  <defs>
    <style>
      .cls-1 {
        fill: #98c9e6;
      }

      .cls-1, .cls-2, .cls-3 {
        stroke-width: 0px;
      }

      .cls-2 {
        fill: #000;
      }

      .cls-3 {
        fill: #fff;
      }
    </style>
  </defs>
  <g id="design">
    <g>
      <rect class="cls-3" width="180" height="60"/>
      <path class="cls-1" d="M43.76,15.24c4.81,0,6.87,2.23,6.87,6.79v1.18c0,3.04-.93,4.93-2.99,5.78v.08c2.49.84,3.46,3.04,3.46,6.16v2.53c0,4.55-2.4,7-7.04,7h-7.29V15.24h7M41.4,27.26h1.81c1.73,0,2.78-.76,2.78-3.12v-1.64c0-2.11-.72-3.04-2.36-3.04h-2.23v7.8M41.4,40.54h2.66c1.56,0,2.4-.72,2.4-2.91v-2.57c0-2.74-.89-3.58-2.99-3.58h-2.07v9.06M43.76,14.99h-7.25v30.01h7.54c4.77,0,7.29-2.51,7.29-7.25v-2.53c0-3.25-1.04-5.29-3.17-6.21,1.82-.95,2.7-2.85,2.7-5.8v-1.18c0-4.8-2.26-7.04-7.12-7.04h0ZM41.65,19.71h1.98c1.5,0,2.11.81,2.11,2.79v1.64c0,2.01-.76,2.87-2.53,2.87h-1.56v-7.3h0ZM41.65,31.73h1.82c1.78,0,2.74.53,2.74,3.33v2.57c0,2.21-.86,2.66-2.15,2.66h-2.41v-8.56h0Z"/>
      <path class="cls-1" d="M60.66,15.24c4.81,0,6.87,2.23,6.87,6.79v1.81c0,3.04-.97,4.98-3.04,5.82v.08c2.32.72,3.08,2.91,3.08,6.24v5.19c0,1.43.04,2.49.51,3.58h-4.72c-.25-.76-.42-1.22-.42-3.63v-5.4c0-2.74-.8-3.63-2.91-3.63h-1.6v12.65h-4.64V15.24h6.87M58.43,27.89h1.69c1.73,0,2.78-.76,2.78-3.12v-2.28c0-2.11-.72-3.04-2.36-3.04h-2.11v8.43M60.66,14.99h-7.12v30.01h5.14v-12.65h1.35c2.01,0,2.66.82,2.66,3.38v5.4c0,2.4.17,2.91.42,3.67l.06.17.19.04h5.1l-.15-.35c-.45-1.07-.49-2.12-.49-3.49v-5.19c0-3.51-.86-5.48-2.78-6.3,1.84-.96,2.74-2.88,2.74-5.84v-1.81c0-4.8-2.26-7.04-7.12-7.04h0ZM58.68,19.71h1.86c1.5,0,2.11.81,2.11,2.79v2.28c0,2.01-.76,2.87-2.53,2.87h-1.44v-7.93h0Z"/>
      <path class="cls-1" d="M80.69,15.24l4.81,29.51h-4.64l-.8-5.78h-5.35l-.8,5.78h-4.3l4.81-29.51h6.28M75.29,34.97h4.17l-2.11-14.88-2.07,14.88M80.9,14.99h-6.71l-.03.21-4.81,29.51-.05.29h4.81l.03-.22.77-5.56h4.92l.77,5.56.03.22h5.15l-.05-.29-4.81-29.51-.03-.21h0ZM75.58,34.72l1.78-12.83,1.82,12.83h-3.6Z"/>
      <path class="cls-1" d="M102.23,15.24v29.51h-4.68l-5.73-21.54v21.54h-4.13V15.24h5.73l4.68,17.67V15.24h4.13M102.48,14.99h-4.63v16l-4.19-15.81-.05-.19h-6.18v30.01h4.63v-19.88l5.24,19.7.05.19h5.12V14.99h0Z"/>
      <path class="cls-1" d="M112.76,15.24c4.64,0,6.91,2.57,6.91,7.29v14.92c0,4.72-2.28,7.29-6.91,7.29h-7.08V15.24h7.08M110.32,40.54h2.36c1.48,0,2.36-.76,2.36-2.87v-15.35c0-2.11-.89-2.87-2.36-2.87h-2.36v21.08M112.76,14.99h-7.33v30.01h7.33c4.69,0,7.16-2.61,7.16-7.54v-14.92c0-4.94-2.48-7.54-7.16-7.54h0ZM110.57,19.71h2.11c.98,0,2.11.3,2.11,2.62v15.35c0,2.32-1.13,2.62-2.11,2.62h-2.11v-20.58h0Z"/>
      <path class="cls-1" d="M128.91,14.82c4.51,0,6.75,2.7,6.75,7.42v1.22h-4.38v-1.52c0-2.11-.84-2.91-2.32-2.91s-2.36.8-2.36,2.82c0,2.15,1.05,3.67,4.09,6.32,3.88,3.42,5.14,5.82,5.14,9.49,0,4.81-2.45,7.5-7,7.5s-6.83-2.7-6.83-7.42v-1.69h4.38v2.02c0,2.11.93,2.87,2.4,2.87s2.45-.76,2.45-2.95c0-2.45-1.01-3.96-4.05-6.62-3.88-3.42-5.19-5.86-5.19-9.23,0-4.64,2.4-7.34,6.91-7.34M128.91,14.57c-4.55,0-7.16,2.76-7.16,7.59,0,3.53,1.38,5.99,5.27,9.42,3.07,2.69,3.96,4.13,3.96,6.43,0,2.42-1.25,2.7-2.2,2.7-1.49,0-2.15-.81-2.15-2.62v-2.27h-4.88v1.94c0,4.95,2.51,7.67,7.08,7.67s7.25-2.75,7.25-7.75c0-3.79-1.32-6.23-5.23-9.67-3.07-2.69-4-4.12-4-6.14,0-1.76.67-2.57,2.11-2.57.96,0,2.07.3,2.07,2.66v1.77h4.88v-1.47c0-4.95-2.48-7.67-7-7.67h0Z"/>
      <path class="cls-1" d="M143.24,40.12v4.64h-4.64v-4.64h4.64M143.49,39.87h-5.14v5.14h5.14v-5.14h0Z"/>
      <path class="cls-2" d="M60.14,24.86l-.52.21.9.59c-.14.27-.24.67-.31.97-.34,1.37-.94,3.54-2.12,5.1-1.26,1.68-3.12,3.07-5.63,3.88l-1.53-1.68c2.77-.64,4.36-1.86,5.49-3.29.92-1.16,1.46-2.75,1.64-3.95h-6.51c-.64,0-1.3.03-1.67.06v-1.98c.41.06,1.2.11,1.67.11h6.49c.17,0,.41,0,.66-.03-.24-.46-.52-.95-.78-1.36l1.15-.48c.36.53.83,1.34,1.08,1.85ZM62.15,24.51l-1.16.5c-.31-.57-.74-1.37-1.12-1.89l1.16-.46c.35.5.85,1.36,1.12,1.85Z"/>
      <path class="cls-2" d="M74,28.73c-.42,1.36-1.02,2.72-2.07,3.88-1.42,1.57-3.21,2.52-5,3.03l-1.39-1.58c2.1-.43,3.78-1.36,4.85-2.45.76-.77,1.19-1.64,1.44-2.42h-6.77c-.34,0-1.04.01-1.62.07v-1.82c.59.04,1.19.08,1.62.08h6.93c.45,0,.83-.06,1.02-.14l1.25.77c-.1.18-.21.43-.27.59ZM66.19,24.15h5.39c.43,0,1.12-.01,1.51-.07v1.81c-.38-.03-1.04-.04-1.54-.04h-5.36c-.45,0-1.05.01-1.46.04v-1.81c.39.06.98.07,1.46.07Z"/>
      <path class="cls-2" d="M82.29,31.67c2.4-1.41,4.22-3.56,5.1-5.45l1.09,1.97c-1.06,1.89-2.93,3.82-5.18,5.18-1.42.85-3.22,1.64-5.2,1.98l-1.18-1.85c2.19-.31,4.01-1.02,5.36-1.83ZM82.29,27.14l-1.43,1.46c-.73-.78-2.48-2.31-3.5-3.03l1.32-1.4c.98.66,2.8,2.12,3.61,2.97Z"/>
      <path class="cls-2" d="M92.3,25.63c0-.5-.04-1.19-.14-1.69h2.19c-.06.49-.13,1.11-.13,1.69v2.05c1.86.56,4.57,1.55,5.85,2.19l-.78,1.95c-1.46-.77-3.56-1.58-5.07-2.09v3.96c0,.39.07,1.37.14,1.95h-2.2c.08-.55.14-1.4.14-1.95v-8.05ZM99.16,26.51l-1.22.55c-.41-.88-.71-1.44-1.23-2.17l1.18-.49c.39.59.95,1.48,1.27,2.12ZM101.04,25.7l-1.18.57c-.45-.88-.78-1.4-1.3-2.1l1.16-.55c.41.56.99,1.44,1.32,2.07Z"/>
      <path class="cls-2" d="M115.92,28.46v1.81h-12.89v-1.81h12.89Z"/>
      <path class="cls-2" d="M128.72,34.61c.43,0,.53-.15.59-1.13.32.21.97.43,1.37.52-.15,1.51-.56,1.9-1.81,1.9h-2.05c-1.67,0-2.07-.39-2.07-1.65v-.63h-1.53c-.41,1.42-1.47,2.12-4.88,2.44-.1-.36-.43-.95-.71-1.26,2.72-.15,3.57-.46,3.92-1.18h-1.82v-4.78h8.87v4.78h-2.23v.62c0,.34.1.38.67.38h1.67ZM124.4,28.49h-6.04v-5.07h5.81v.92h-2v.45h1.81v1.34c.71-.8,1.29-1.99,1.6-3.18l1.48.32c-.1.35-.21.7-.35,1.04h3.8v1.29h-4.37c-.29.56-.62,1.08-.95,1.48-.27-.24-.84-.62-1.2-.81v.77h-1.81v.5h2.23v.94ZM119.85,24.34v.45h.99v-.45h-.99ZM122.53,25.67h-2.68v.49h2.68v-.49ZM119.85,27.55h.99v-.5h-.99v.5ZM121.31,30.17h5.65v-.45h-5.65v.45ZM121.31,31.44h5.65v-.45h-5.65v.45ZM121.31,32.75h5.65v-.46h-5.65v.46ZM125.52,28.11v-1.26h4.65v1.26h-4.65Z"/>
    </g>
  </g>
</svg>