<?xml version="1.0" encoding="UTF-8"?>
<svg id="_レイヤー_2" data-name="レイヤー 2" xmlns="http://www.w3.org/2000/svg" viewBox="0 0 180 60">
  <defs>
    <style>
      .cls-1 {
        fill: #1a1a1a;
      }

      .cls-1, .cls-2 {
        stroke-width: 0px;
      }

      .cls-2 {
        fill: #fff;
      }
    </style>
  </defs>
  <g id="design">
    <g>
      <g>
        <rect class="cls-1" width="180" height="60"/>
        <path class="cls-2" d="M36.31,25.46h-3.63v10.47h-2.14v-10.47h-3.6v-1.71h9.36v1.71Z"/>
        <path class="cls-2" d="M50.47,24.99c.57,0,.85-.02,1.08-.14.06-.05.11-.06.17-.06.09,0,.17.06.27.13.36.28.72.69,1.02,1.1.05.08.08.14.08.2,0,.09-.06.2-.2.31-.2.17-.41.41-.58.69-.64,1.1-1.26,1.98-2.01,2.94,1.51,1.11,2.9,2.34,4.35,3.8.08.08.13.16.13.22s-.03.14-.11.24c-.3.36-.66.74-1.05,1.07-.06.06-.13.09-.19.09-.08,0-.14-.05-.22-.13-1.32-1.54-2.67-2.78-4.08-3.89-1.77,1.85-3.56,3.19-5.28,4.15-.14.06-.25.13-.36.13-.09,0-.19-.05-.27-.14-.35-.42-.8-.74-1.32-1.02,2.45-1.24,3.91-2.36,5.53-4,1.13-1.18,1.99-2.29,2.95-3.94l-4.05.02c-.82,0-1.63.03-2.48.09-.13.02-.17-.09-.2-.27-.08-.33-.14-1.08-.14-1.63.85.06,1.63.06,2.65.06h4.32Z"/>
        <path class="cls-2" d="M60.54,28.71c.42-.96.66-1.76.71-2.32.8.28,1.51.57,1.95.8.14.06.19.16.19.25,0,.11-.06.22-.16.31-.17.17-.3.39-.55.96-.93,2.09-1.85,3.69-3.36,5.28-.14.16-.28.24-.44.24-.13,0-.24-.05-.36-.16-.31-.25-.82-.5-1.38-.68,1.65-1.46,2.78-3.25,3.41-4.68ZM66.41,26.58c.08-.06.16-.09.22-.09.08,0,.14.03.24.13,1.71,1.71,3.03,3.75,3.94,5.76.05.08.06.14.06.22,0,.09-.05.17-.16.25-.3.24-.8.57-1.3.83-.2.09-.31.06-.38-.14-1.16-2.62-2.32-4.46-3.88-6.11.57-.38.99-.68,1.26-.85ZM71.7,25.51c0,.94-.75,1.68-1.7,1.68s-1.7-.74-1.7-1.68.75-1.68,1.7-1.68,1.7.74,1.7,1.68ZM69.08,25.51c0,.53.39.93.93.93s.93-.39.93-.93-.39-.93-.93-.93-.93.39-.93.93Z"/>
        <path class="cls-2" d="M76.68,31.05c-1.55,0-2.15.19-2.31.19-.19,0-.31-.09-.36-.33-.08-.36-.17-1.1-.24-1.9,1.02.16,1.81.19,3.39.19h5.06c1.19,0,2.4-.03,3.61-.05.24-.02.28.03.28.22.03.47.03,1,0,1.48,0,.19-.06.25-.28.24-1.18-.02-2.34-.03-3.5-.03h-5.65Z"/>
        <path class="cls-2" d="M98.54,25.81c.41-.02.61-.08.78-.19.06-.05.13-.06.2-.06s.16.03.25.09c.39.25.75.55,1.07.85.14.13.2.25.2.36,0,.13-.08.24-.19.33-.22.17-.38.39-.52.68-1.05,2.14-2.06,3.66-3.11,4.85-1.35,1.52-3.22,3.05-4.77,3.91-.09.06-.17.08-.25.08-.13,0-.24-.06-.36-.17-.39-.31-.88-.55-1.49-.72,2.45-1.35,3.69-2.34,5.23-4,1.24-1.38,1.96-2.45,2.9-4.46l-3.8.11c-1.29,1.59-2.07,2.48-2.97,3.22-.11.11-.22.17-.33.17-.08,0-.16-.03-.24-.09-.39-.28-.97-.57-1.51-.68,2.04-1.66,3.25-3.12,4.22-4.66.52-.88.75-1.37.93-2.12.9.31,1.49.58,1.84.83.11.08.16.17.16.27s-.05.19-.17.27c-.16.09-.27.27-.39.42-.17.27-.33.5-.52.78l2.83-.06Z"/>
      </g>
      <path class="cls-2" d="M111.61,34.22h5.72v1.71h-7.85v-12.18h2.14v10.47Z"/>
      <path class="cls-2" d="M129.04,29.84c0,4.02-2.1,6.33-5.23,6.33s-5.21-2.28-5.21-6.3,2.12-6.33,5.23-6.33,5.21,2.26,5.21,6.3ZM120.84,29.86c0,3.11,1.19,4.68,2.98,4.68s2.97-1.57,2.97-4.68-1.18-4.68-2.97-4.68-2.98,1.55-2.98,4.68Z"/>
      <path class="cls-2" d="M138.48,27.6c-.3-1.54-1.13-2.42-2.53-2.42-1.85,0-3.09,1.57-3.09,4.68s1.21,4.68,3.06,4.68c1.71,0,2.53-1.37,2.72-3.31h-2.84v-1.63h4.82v6.42h-1.41l-.24-1.77c-.63,1.26-1.81,1.93-3.27,1.93-3.03,0-5.09-2.26-5.09-6.3s2.18-6.33,5.31-6.33c2.53,0,4.1,1.41,4.62,3.56l-2.06.49Z"/>
      <path class="cls-2" d="M153.05,29.84c0,4.02-2.1,6.33-5.23,6.33s-5.21-2.28-5.21-6.3,2.12-6.33,5.23-6.33,5.21,2.26,5.21,6.3ZM144.85,29.86c0,3.11,1.19,4.68,2.98,4.68s2.97-1.57,2.97-4.68-1.18-4.68-2.97-4.68-2.98,1.55-2.98,4.68Z"/>
    </g>
  </g>
</svg>