<?xml version="1.0" encoding="UTF-8"?>
<svg id="_レイヤー_2" data-name="レイヤー 2" xmlns="http://www.w3.org/2000/svg" viewBox="0 0 530 50">
  <defs>
    <style>
      .cls-1 {
        fill: #007ac1;
      }

      .cls-1, .cls-2 {
        stroke-width: 0px;
      }

      .cls-2 {
        fill: #fff;
      }
    </style>
  </defs>
  <g id="design">
    <g>
      <path class="cls-2" d="M508.55,50H21.45c-2.16,0-4.2-.98-5.55-2.66L1.54,29.37c-2.05-2.56-2.05-6.18,0-8.74L15.9,2.66c1.34-1.68,3.39-2.66,5.55-2.66h487.1c2.16,0,4.2.98,5.55,2.66l14.37,17.97c2.05,2.56,2.05,6.18,0,8.74l-14.37,17.97c-1.34,1.68-3.39,2.66-5.55,2.66Z"/>
      <polygon class="cls-1" points="499.29 15 498.12 15.78 505.72 24.36 485.03 24.36 485.03 25.64 505.72 25.64 498.12 34.22 499.29 35 508.16 25 499.29 15"/>
    </g>
  </g>
</svg>