<?xml version="1.0" encoding="UTF-8"?>
<svg id="_レイヤー_2" data-name="レイヤー 2" xmlns="http://www.w3.org/2000/svg" viewBox="0 0 420 50">
  <defs>
    <style>
      .cls-1 {
        fill: none;
      }

      .cls-1, .cls-2, .cls-3 {
        stroke-width: 0px;
      }

      .cls-2 {
        fill: #e3004f;
      }

      .cls-3 {
        fill: #007ac1;
      }
    </style>
  </defs>
  <g id="design">
    <g>
      <path class="cls-3" d="M16.68,17.58c1.31-1.81,2.4-3.13,3.26-3.93.73-.68,1.56-1.22,2.45-1.59.98-.41,2.31-.72,3.95-.93,1.78-.22,4.09-.34,7.93-.34h20.55s-21.92,12.93-21.92,12.93h31.18l26.37-15.54.02-6.46-88.26-.03-.06,17.21h13.57s.95-1.32.95-1.32Z"/>
      <path class="cls-3" d="M122.9,23.72c.75-8.39,9.04-15,19.16-15s18.41,6.61,19.16,15h26.18c-.32-4.97-2.41-9.07-6.24-12.71-3.86-3.67-9.35-6.47-16.32-8.32-6.69-1.78-14.05-2.69-22.79-2.69s-16.1.9-22.79,2.69c-6.96,1.86-12.45,4.66-16.32,8.32-3.83,3.64-5.92,7.74-6.24,12.71h26.18Z"/>
      <path class="cls-3" d="M198.51,10.13c.69.15,1.06.31,1.24.4.04.17.13.68.13,1.72l-.03,11.47h20.4l.03-11.44c0-1.11.12-1.6.16-1.75.19-.09.59-.26,1.35-.43.84-.19,2.31-.38,4.36-.59l2.87-.28.02-7.52-37.87-.02-.02,7.49,2.84.32c2.17.25,3.69.46,4.52.64Z"/>
      <path class="cls-3" d="M338.67,23.72h66.29c-1.47-.41-3.05-.8-4.78-1.18-4.88-1.05-11.8-2.21-20.57-3.42-7.11-.97-12.13-1.63-16.73-2.15-9.89-1.13-8.54-4.58-.1-5.61,3.35-.41,8.37-.81,12.65-.81,12.03,0,16.8,1.24,18.94,2,4.85,1.74,6.45,4.79,6.45,4.79h14.73s.05-13.96.05-13.96c0,0-16.79-1.7-41.49-1.7-19.87,0-43.68,2.81-43.68,13.66,0,3.53,3.35,6.26,8.23,8.37Z"/>
      <path class="cls-3" d="M243.65,10.16c.68.15,1.05.3,1.24.39.04.2.12.71.12,1.72l-.03,11.45h21.35l.04-13c1.91-.03,3.91-.05,5.93-.05h.18c6.72,0,12.55.58,17.32,1.7,4.49,1.06,7.95,2.71,10.3,4.91,1.85,1.73,2.85,3.85,3.05,6.44h22.66c-.09-3.84-1.36-7.23-3.78-10.07-2.37-2.77-5.91-5.07-10.51-6.85-4.34-1.68-9.69-2.96-15.9-3.81-6.11-.84-14.02-1.26-23.53-1.27l-35.86-.02-.02,7.49,2.85.31c2.75.3,4.01.52,4.59.64Z"/>
      <path class="cls-2" d="M75.96,32.42c-1.31,1.81-2.4,3.13-3.26,3.93-.73.68-1.56,1.22-2.45,1.59-.98.41-2.31.72-3.95.93-1.78.22-4.09.34-7.93.34h-20.55s21.81-12.86,21.81-12.86h-31.18L2.19,41.82l-.02,6.46,88.26.03.06-17.21h-13.57s-.95,1.32-.95,1.32Z"/>
      <path class="cls-2" d="M161.21,26.35c-.84,8.32-9.09,14.85-19.15,14.85s-18.31-6.53-19.15-14.85h-26.2c.21,3.96,1.39,7.69,3.52,10.63,2.27,3.12,5.49,5.7,9.56,7.65,3.86,1.85,8.5,3.23,13.81,4.09,5.18.84,12.19,1.27,18.45,1.28,6.26,0,13.28-.43,18.45-1.28,5.3-.86,9.95-2.24,13.81-4.09,4.07-1.96,7.29-4.53,9.56-7.65,2.14-2.94,3.32-6.67,3.52-10.63h-26.2Z"/>
      <path class="cls-2" d="M303.09,26.35c-.11.98-.31,1.91-.61,2.77-.44,1.24-1.16,2.4-2.13,3.44-1.03,1.1-2.42,2.12-4.14,3.01-1.81.94-3.89,1.68-6.18,2.21-2.41.56-5.13.97-8.09,1.23-2.99.26-6.47.4-10.35.4-2.06,0-3.84-.01-5.31-.04l.04-13.01h-21.35l-.03,11.46c0,1.09-.1,1.6-.15,1.76-.16.08-.53.23-1.24.38-.88.19-2.42.4-4.57.62l-2.85.29-.03,7.51h30.48c8.21.01,14.92-.16,19.94-.49,5.14-.34,9.76-.93,13.73-1.74,4.85-1.01,9.04-2.33,12.43-3.91,4.15-1.92,7.38-4.39,9.61-7.32,1.92-2.53,3.06-5.41,3.42-8.58h-22.61Z"/>
      <path class="cls-2" d="M412.19,26.37s-.03-.02-.05-.02h-65.67c6.46,1.72,13.71,2.83,19.43,3.58,8.15,1.06,20.78,2.92,22.9,3.26,4.67.75,5.85,3.02.03,4.59-3.96,1.07-9.86,1.43-17.53,1.43-5.64,0-10.38-.23-13.9-.67-3.38-.43-4.79-.95-6.76-1.92-3.88-1.9-5.23-5.51-5.23-5.51h-14.97s-.06,15.53-.06,15.53c0,0,17.06,1.74,43.74,1.74s43.74-2.75,43.74-14.59c0-3.01-1.83-5.5-5.66-7.4Z"/>
      <path class="cls-2" d="M221.48,39.93c-.68-.16-1.02-.31-1.16-.38-.04-.16-.12-.65-.12-1.73l.03-11.47h-20.4l-.03,11.44c0,1-.1,1.53-.16,1.77-.06.03-.16.08-.31.13-.36.13-1.61.48-5.42.87l-2.86.29-.02,7.51,37.86.02.03-7.51-2.87-.3c-2.14-.22-3.68-.44-4.57-.64Z"/>
      <rect class="cls-1" width="420" height="50"/>
    </g>
  </g>
</svg>