<svg id="レイヤー_1" data-name="レイヤー 1" xmlns="http://www.w3.org/2000/svg" viewBox="0 0 807.43 71.05"><defs><style>.cls-1{fill:#fff;}</style></defs><path class="cls-1" d="M600.27.54h-11.5V70.93h11.5V30.47c16.71,1.37,37.49,8.28,46.79,13.72l3.49-10.09c-12.7-7-34.09-13.37-50.28-14.66Zm139.13,27V39h68V27.54Zm-14.78,6.1c-12.13-3.85-35.25-7.39-59.83-7.39v11c26.9,0,47.6,4.33,57.34,7Zm0-25.7C712.49,4.09,689.37.54,664.79.54v11c26.9,0,47.6,4.33,57.34,7ZM663.38,64c26.91,0,51.83,4.32,61.57,7L727.42,60c-12.6-3.7-39.46-7.52-64-7.52ZM502.14,35.27h56.18c-.75,12.66-4.25,17-10.71,20.78-6,3.51-19.49,3.48-35.1,3.43H505L507.22,71l5.27,0c18,0,32.15.09,40.89-5C565.47,59,570,49.1,570,29.52V23.77H502.14Zm0-21.16H570V3.56H502.14ZM452.27,0,440.78.14V9h-20V20h20v.92c-.2,20.09-6.26,30.55-23.19,40l5.62,10C443.62,59.55,452.05,45.08,452.27,21V20h25.07c0,7.13,0,21.79,0,21.79,0,17-5,17-7.65,17l-8.81,0-5.9.05,2.22,11.48,3.84,0,8.65-.07c12.7,0,19.15-9.58,19.15-28.51L488.86,9,452.27,9ZM406.46,4h-58L348,9.18c-.76,7.82-4.81,17.88-12.19,22.7l6.27,9.62c9.44-6.16,14.51-17.49,16.49-26.57l36.41,0v.95c0,8.23,0,14.46-.24,19.27a156.76,156.76,0,0,0-34.54-9.73l-.1,0c-.34.59-5.14,9.3-5.83,10.54h.22a143.41,143.41,0,0,1,38.79,10.69c-1.06,3.65-2.81,5.78-5.66,8.26-5.75,5-21.19,4.79-34.8,4.58l-8.53-.08,2.27,11.5,6.09.08c17.21.24,33.44.48,42.5-7.41,11.35-9.86,11.35-18.31,11.33-49.72ZM137.62,20.48h15.95V12h-16V.31h-9.38V12H86.47v8.45h41.77c.29,24.07,5.6,38.44,21.73,50.21l5.94-6.63C141.12,52.83,137.86,40.31,137.62,20.48ZM153.57.31h-8.45V8.76h8.45ZM110.39,60.62V39.24H124V30.81H87.88v8.43h13.59V60.82c-1.75,0-3.44,0-5,0h-10v8.9H98.24c10.05,0,22.77,0,32-2.76l-1.47-8.55C124,59.73,117.14,60.35,110.39,60.62Zm154.3-30.56c4.12-6.09,6.55-12.26,6.65-18H261.26V.31h-8.92V12h-11v8.45h18.76C256.34,28.09,249,35.61,238.22,43.9l4.89,7.2a101.43,101.43,0,0,0,9.23-7.24V70.69h8.92V38.85a103.84,103.84,0,0,1,9,8.4l5.94-6.58A90.79,90.79,0,0,0,264.69,30.06Zm31.76-2.42h12.91V19.19H296.45V.31h-9.39V19.19H274.17v8.45h12.89v33.2H271.81v8.9h39.9v-8.9H296.45ZM163.34,44.82h13.37l-5.92,16h-7.45v8.9h16.8c9.32,0,27.24-.57,38.2-4a26.52,26.52,0,0,1,1,4.92h9.87c-.91-10.46-7.75-21-10.09-23.93l-8.62,2.32a48.53,48.53,0,0,1,4.67,8.34c-9,2.67-24.23,3.31-34.53,3.4l5.91-16h42.66V36.37H163.34ZM190.82.31c-5.56,5.13-20.2,13.13-31.18,17.35l2.58,8.28a104.53,104.53,0,0,0,10.87-4.55v7.33h46.4V21.41a103.66,103.66,0,0,0,10.83,4.53l2.57-8.28c-11-4.22-25.61-12.22-31.18-17.35Zm-15.42,20c7.82-3.88,16.08-8.77,20.87-13,4.78,4.21,13,9.1,20.86,13ZM24.3,24.43V20.48h8V12h-8V.31H15.37V12H3.87v8.45h9.18C10.86,28.59,5.23,40.21,0,48l5.79,6.23C9.47,50,12.69,44,15.37,37.9V70.69H24.3V35.42a71.14,71.14,0,0,1,6.08,5.74L34,33.56A113.45,113.45,0,0,0,24.3,24.43Zm50,14.81V30.79H59.48V20.48H74.27V12H59.48V.31H50.56V12h-6c.14-2.56.17-5.31.17-8.28V.31H36.27V6.18c0,11.23-1.71,15.37-4,18.76l7,5a25.74,25.74,0,0,0,4.23-9.46h7.11V30.79H35.78v8.45h10c-3.4,8.21-11.3,19.24-15,23.12l5.94,6.38C41,64.38,46.35,56.63,50.56,48.45V70.69h8.92V48.43c4.22,8.2,9.58,15.94,13.88,20.31l5.93-6.38c-3.69-3.88-11.6-14.91-15-23.12Z"/></svg>