<svg id="レイヤー_1" data-name="レイヤー 1" xmlns="http://www.w3.org/2000/svg" viewBox="0 0 520.7 148.98"><defs><style>.cls-1{fill:#0049bc;}</style></defs><path d="M120.82,132.21a18.76,18.76,0,0,0,4.59-5.86c.38-.81.61-1.24,1.42-1.24.41,0,2,.15,2,1.24,0,.69-1.68,4.65-5.71,8.61-.69.66-1,.94-1.55.94a2.32,2.32,0,0,1-1.91-2.36C119.75,133.18,119.85,133.08,120.82,132.21Zm13.53,8.16a1.58,1.58,0,0,1-.48-1.1c0-1,1.4-1.59,1.93-1.59a1.49,1.49,0,0,1,.91.38c.94.76,3.23,4.06,4.91,6.75a5.33,5.33,0,0,1,.91,2c0,1.25-1.78,1.73-2.24,1.73-.78,0-1.06-.51-1.82-2-5.44.53-7.6.74-9.5.86-3.08.23-6.63.44-7.09.44a1.64,1.64,0,0,1-.91-.23,1.89,1.89,0,0,1-.64-1.58,1.23,1.23,0,0,1,1.25-1.42c.3,0,1.75-.05,2.08-.08.41-.89,3-6.73,4-10.1.49-1.55.61-2,1.83-2,.28,0,1.91.05,1.91,1.32,0,.51-.08.69-.69,2.18-1.45,3.51-1.67,4-3.68,8.48,3.25-.14,6.5-.33,9.75-.7A34.12,34.12,0,0,0,134.35,140.37Zm2.8-14.3a24.23,24.23,0,0,0,5,6.37c.89.82,1.14,1.05,1.14,1.53,0,.63-.89,2.16-1.93,2.16-.51,0-.76-.08-2.61-2-3.36-3.4-4.88-7.06-4.88-7.62,0-.89,1.09-1.42,2-1.42C136.64,125.13,136.87,125.54,137.15,126.07Z"/><path d="M169.38,128.84c-.25-.18-1.47-1-1.75-1.2-1-.63-1.1-.78-1.1-1.22A1.67,1.67,0,0,1,168,125c.43,0,1,.3,2.33,1.17,1.1.73,1.27,1,1.27,1.49a1.62,1.62,0,0,1-.66,1.2h.59c1.22,0,1.88,0,1.88,1.62,0,1.42-.84,1.42-1.88,1.42h-5.61a43.75,43.75,0,0,0,1.26,9c.33,1.19,1.4,4.17,2.6,4.17.4,0,.71-.33,1.16-1.48.41-1,.59-1.24,1.07-1.24a2,2,0,0,1,1.58,1.93,6.9,6.9,0,0,1-1,2.77,3.57,3.57,0,0,1-2.74,2c-1.32,0-4.52-1.25-6.15-8.41a50.16,50.16,0,0,1-1-8.69H151.27c-1.22,0-1.88,0-1.88-1.62,0-1.42.84-1.42,1.88-1.42h11.3a26,26,0,0,1,0-2.9c.13-.78.74-.94,1.65-.94s1.27.16,1.5.71a16.05,16.05,0,0,1,.1,3.13ZM157.6,144.13c1-.13,2.46-.33,2.79-.39.53-.07,1.24-.22,1.52-.22.49,0,1,.22,1,1.24a1.44,1.44,0,0,1-1.27,1.65,98.69,98.69,0,0,1-10.94,1.68c-.94,0-1.3-.89-1.3-1.83a1.12,1.12,0,0,1,1.07-1.3c.76-.1,3.4-.37,3.91-.45v-6.83h-3.17c-1.2,0-1.4-.59-1.4-1.6s.46-1.45,1.4-1.45h9c1.22,0,1.88,0,1.88,1.62,0,1.43-.84,1.43-1.88,1.43H157.6Z"/><path d="M185.23,134.2c.89.38,1.4.81,1.4,1.52s-.59,2-1.55,2a7,7,0,0,1-2.19-.79c-.84-.38-1.19-.48-2.51-1-1.14-.41-1.53-.82-1.53-1.58a1.64,1.64,0,0,1,1.61-1.75A25.1,25.1,0,0,1,185.23,134.2Zm14.5-2.11c0,1.22-2,5.81-4.6,8.79A19.32,19.32,0,0,1,184.26,147a14.27,14.27,0,0,1-2.51.36,1.7,1.7,0,0,1-1.75-1.86c0-1.14.68-1.6,1.77-1.75,5.11-.76,10.44-1.85,14-10.51.13-.31.43-1.27.63-1.73a1.35,1.35,0,0,1,1.32-.86C198.59,130.62,199.73,131.18,199.73,132.09Zm-12.39-3.71c1,.38,1.5.89,1.5,1.55,0,.86-.69,1.93-1.58,1.93a2.09,2.09,0,0,1-.79-.18,43,43,0,0,0-4.34-1.65c-1-.3-1.35-.71-1.35-1.47a1.65,1.65,0,0,1,1.58-1.75A22.5,22.5,0,0,1,187.34,128.38Z"/><path d="M207.75,140.52c-.91,0-1.65-.4-1.65-1.45s.74-1.42,1.65-1.42h9.43v-2.33c0-.74-.16-1-1.07-1h-8.66c-1,0-1.63-.48-1.63-1.45s.69-1.45,1.63-1.45h9.8c2.57,0,3.15.69,3.15,3.4V144c0,2.39-.58,3.17-3.15,3.17h-10c-1,0-1.67-.38-1.67-1.47s.68-1.5,1.67-1.5h8.89c.63,0,1.07,0,1.07-1v-2.67Z"/><path d="M230.84,134.58a12.91,12.91,0,0,1,.79,2.82,1.46,1.46,0,0,1-1.6,1.32,1.37,1.37,0,0,1-1.38-1.09c-.33-1-.55-1.88-.73-2.37a5.56,5.56,0,0,1-.48-1.67c0-.74.71-1.27,1.62-1.27S230.13,132.67,230.84,134.58Zm13.56-1.5a21.54,21.54,0,0,1-3.25,8.38A15,15,0,0,1,230.84,148a1.48,1.48,0,0,1-1.43-1.6c0-.89.51-1.17,1.66-1.43a12.51,12.51,0,0,0,8.45-6.75,28.81,28.81,0,0,0,1.58-5c.2-1.07.58-1.5,1.5-1.5C243.71,131.68,244.4,132.37,244.4,133.08Zm-8,.33a20.76,20.76,0,0,1,.74,3,1.5,1.5,0,0,1-1.63,1.35c-.76,0-1.17-.43-1.42-1.5-.18-.84-.61-2.19-.84-3a2.21,2.21,0,0,1-.08-.59,1.41,1.41,0,0,1,1.55-1.22C235.79,131.45,236.12,132.57,236.4,133.41Z"/><path d="M255.07,142.35c0,1.32.22,1.47,2,1.47h7.87c.63,0,3.61-.25,4-.25.71,0,1.37.48,1.37,1.7,0,1.75-1,1.91-4.12,1.91h-9.77c-1.76,0-4.83,0-4.83-3.74V129.07c0-1,0-1.47.43-1.91a1.91,1.91,0,0,1,1.32-.45,1.86,1.86,0,0,1,1.48.63c.23.33.23.71.23,1.73v5.1a40.76,40.76,0,0,0,10.36-4,2.26,2.26,0,0,1,1.14-.36c1.12,0,1.68,1.25,1.68,2s-.56,1.19-1.32,1.58a50,50,0,0,1-11.86,4Zm17.7-14.71a2.72,2.72,0,1,1-2.75-2.71A2.73,2.73,0,0,1,272.77,127.64Zm-3.91,0a1.14,1.14,0,0,0,1.16,1.17,1.17,1.17,0,0,0,1.2-1.17,1.18,1.18,0,0,0-2.36,0Z"/><path d="M286,129.5c.84.43,1.32.79,1.32,1.57s-.53,2.09-1.8,2.09c-.36,0-.84-.23-2.42-1.09a28.76,28.76,0,0,0-3.2-1.45c-.86-.33-1.14-.66-1.14-1.32a1.86,1.86,0,0,1,1.6-2C281.25,127.31,284.12,128.51,286,129.5Zm13.74,1.42a17,17,0,0,1-2.09,5.26,21.77,21.77,0,0,1-16.86,11,1.9,1.9,0,0,1-1.9-2.13c0-1.14.76-1.48,1.9-1.66a22.44,22.44,0,0,0,4.83-1.19,17.27,17.27,0,0,0,9.75-9.34c.18-.46.76-2.14,1-2.77a1.29,1.29,0,0,1,1.35-.84C298.5,129.27,299.77,129.88,299.77,130.92Z"/><path d="M311.63,132.55a25.89,25.89,0,0,1-3.25,3.43c-1.42,1.24-2,1.59-2.62,1.59a1.66,1.66,0,0,1-1.62-1.67,1.57,1.57,0,0,1,.83-1.37,20.27,20.27,0,0,0,1.83-1.5,19.36,19.36,0,0,0,4.17-5.74c.46-1.07.84-1.5,1.78-1.5s1.93.61,1.93,1.42a6,6,0,0,1-.92,2.19h7.95c1.85,0,2.54.83,2.54,2a8.32,8.32,0,0,1-.33,1.88,19.94,19.94,0,0,1-7,10.92,21.09,21.09,0,0,1-9.73,3.81,1.64,1.64,0,0,1-1.59-1.8c0-1.14.76-1.35,1.8-1.58,5.38-1.14,8.35-2.92,10.59-6.5a14.34,14.34,0,0,0,2.18-5.23c0-.35-.25-.35-.45-.35Zm10.64-6.25a8.47,8.47,0,0,1,.48,1.65c0,.56-.61,1-1.29,1s-.77-.38-.94-.94a11.72,11.72,0,0,1-.56-2.06,1.06,1.06,0,0,1,1.12-.91C321.63,125,321.86,125.26,322.27,126.3Zm3.48-.56a5.15,5.15,0,0,1,.58,1.86,1.05,1.05,0,0,1-1.17,1c-.5,0-.76-.17-1-1a15.87,15.87,0,0,1-.64-1.91c0-.25.26-.81,1.17-.81C325.27,124.9,325.47,125.13,325.75,125.74Z"/><path d="M346.09,127.64c0-1.09.46-1.67,1.68-1.67s1.78.53,1.78,1.67v3h2.56a1.45,1.45,0,0,1,1.65,1.58c0,1.11-.61,1.57-1.65,1.57h-2.56v2.21c0,6.35-3,8.84-5.72,10.24a16.66,16.66,0,0,1-5.51,1.65,1.58,1.58,0,0,1-1.62-1.71,1.33,1.33,0,0,1,1.22-1.49c4.47-.94,8.17-2.36,8.17-8.66v-2.24h-7.44v4.65c0,1-.33,1.75-1.62,1.75s-1.81-.56-1.81-1.75v-4.65h-2.38c-1.07,0-1.71-.48-1.71-1.57a1.5,1.5,0,0,1,1.71-1.58h2.38v-2.84a1.56,1.56,0,0,1,1.76-1.78c1.32,0,1.67.68,1.67,1.78v2.84h7.44Z"/><path d="M371.9,146.16c0,1.09-.46,1.83-1.75,1.83-1.55,0-1.83-.77-1.83-1.83v-9.25c-4,2.44-7.72,3.89-8.46,3.89a1.72,1.72,0,0,1-1.63-1.78c0-.94.51-1.19,1.94-1.7a39.32,39.32,0,0,0,13.43-8.81c1.83-2,2.08-2.36,2.9-2.36a2,2,0,0,1,1.95,1.8c0,.58-.2.89-1.6,2.26a55.84,55.84,0,0,1-5,4.24Z"/><path d="M389,146.44c0,1.19-.43,1.77-1.7,1.77-1.6,0-2-.58-2-1.77v-19c0-1.06.56-1.65,1.81-1.65s1.85.54,1.85,1.65v4.68a59.8,59.8,0,0,1,10.57,4.34c1.19.66,1.47,1,1.47,1.68,0,.89-.68,2.28-1.8,2.28-.44,0-.82-.12-1.86-.83a48.63,48.63,0,0,0-8.38-3.87Z"/><path d="M84.6,3.81A5.24,5.24,0,0,1,84.51,3c0-1.19,1.37-1.62,2.23-1.62,1.46,0,1.67,1,1.79,1.68l.71,3.78L96.4,5.73a1.87,1.87,0,0,1,2.32,2A1.77,1.77,0,0,1,97,9.57l-7,1.1.64,3.41,8.47-1.34a6.34,6.34,0,0,1,.67-.06c1.13,0,1.8.85,1.8,2.13a1.76,1.76,0,0,1-1.74,1.77l-8.47,1.31L92.83,26a4.15,4.15,0,0,1,.06.83c0,1.15-1.37,1.61-2.28,1.61-1.47,0-1.65-1-1.77-1.71l-1.53-8.17-10,1.56a3.26,3.26,0,0,1-.55,0A1.82,1.82,0,0,1,75,18.05a1.77,1.77,0,0,1,1.74-1.8l9.9-1.56L86,11.28l-7.34,1.16a3.45,3.45,0,0,1-.58,0c-1.07,0-1.77-.83-1.77-2.08A1.74,1.74,0,0,1,78,8.6l7.25-1.13Z"/><path d="M109.56,18.66a70.92,70.92,0,0,1,18.35,4.81c1.89.79,2.56,1,2.56,2.29,0,.82-.54,2.22-1.76,2.22a5.91,5.91,0,0,1-2.35-.67,68.1,68.1,0,0,0-16.16-4.6c-1.34-.24-2.53-.52-2.53-2C107.67,20.58,107.7,18.66,109.56,18.66ZM111.94,1.8a63.49,63.49,0,0,1,13.38,3.26c3.08,1.13,3.6,1.43,3.6,2.56,0,.67-.4,2.17-1.74,2.17A36.72,36.72,0,0,1,122,8.17a93.46,93.46,0,0,0-9.63-2.41c-1.19-.24-2.35-.52-2.35-1.92A1.82,1.82,0,0,1,111.94,1.8Zm13.11,11.86c2,.73,2.74,1,2.74,2.22,0,.67-.36,2.23-1.71,2.23a9.25,9.25,0,0,1-3.35-1,72.82,72.82,0,0,0-9.48-2.9c-1.28-.3-2.32-.54-2.32-2a1.93,1.93,0,0,1,1.86-2.07A65,65,0,0,1,125.05,13.66Z"/><path d="M149,20.67c-1.16,3.11-2.68,5.55-5.42,5.55-3.39,0-6.59-4.52-6.59-10,0-8.11,6-13.48,14-13.48,8.6,0,12.62,6.16,12.62,12,0,9.12-8.26,12.75-9.81,12.75a2.05,2.05,0,0,1-2-2.14,1.49,1.49,0,0,1,1-1.52c2.17-1,6.71-3.08,6.71-9.12,0-2.37-.76-7.46-7.32-8.35A59,59,0,0,1,149,20.67Zm-8.2-4.36c0,3,1.28,5.7,2.65,5.7,1,0,1.56-1.68,2.05-3a58,58,0,0,0,2.83-12.47A9.69,9.69,0,0,0,140.83,16.31Z"/><path d="M176,22.31c-1.67,4.49-2,5-3.32,5-1,0-2.31-.67-2.31-1.77,0-.45.09-.7,1-2.74a71.39,71.39,0,0,0,4.48-13.08c-.85.06-1.71.13-2.74.13-1.49,0-2.84,0-2.84-1.92s1.5-2,2.17-2c1.13,0,3.29,0,4.3,0,.12-.61.58-3.29.76-3.81A1.72,1.72,0,0,1,179.3.88c.73,0,2.1.34,2.1,1.56a18.85,18.85,0,0,1-.55,3.08c.82-.09,4.94-.8,5.15-.8a1.74,1.74,0,0,1,1.74,2,1.56,1.56,0,0,1-1.31,1.64,46.68,46.68,0,0,1-6.49,1.07A121.57,121.57,0,0,1,176,22.31Zm6.5-4.2c.82,0,1.86.42,1.86,1.22a1.6,1.6,0,0,1-.46,1,2.23,2.23,0,0,0-.64,1.44c0,1.28,1.4,2.07,5.61,2.07a35.26,35.26,0,0,0,4.54-.31c.37,0,.7-.06.88-.06a1.68,1.68,0,0,1,1.8,1.92c0,1.77-.76,2.26-7.19,2.26-3.23,0-9.54-.18-9.54-5C179.33,21.06,180.67,18.11,182.47,18.11Zm7.56-8c4.2,0,5.48.21,5.48,2a1.7,1.7,0,0,1-1.7,1.89c-.28,0-1.53-.09-1.8-.12-1.07-.06-1.95-.09-2.81-.09a36.48,36.48,0,0,0-3.87.18,10.48,10.48,0,0,1-1.22.09c-1,0-1.61-.55-1.61-1.83S182.74,10.06,190,10.06ZM193.2,7a1.39,1.39,0,0,1-1.4,1.34c-.77,0-1-.49-1.38-1.34a16.43,16.43,0,0,0-1.86-3.2,1.69,1.69,0,0,1-.39-.91,1.46,1.46,0,0,1,1.52-1.29.66.66,0,0,1,.31.07C190.91,2,193.2,6.28,193.2,7Zm4.33-1.55a1.38,1.38,0,0,1-1.41,1.31c-.76,0-.94-.37-1.37-1.34a17.14,17.14,0,0,0-1.89-3.24,1.66,1.66,0,0,1-.36-.88A1.42,1.42,0,0,1,194,0a2,2,0,0,1,.31.06C195.21.37,197.53,4.63,197.53,5.43Z"/><path d="M208.07,5c0,.43-.28,2.41-.34,2.87-.12,1.34-.24,3-.24,4.69,0,4.94,1.18,10.06,3.23,10.06.85,0,1.77-1.83,2.35-3.23.88-2.08,1-2.53,2-2.53a2,2,0,0,1,2.1,1.83,15.5,15.5,0,0,1-1.52,4.05c-1.44,2.74-2.9,4.42-5.16,4.42-4,0-7-5.73-7-14.94A48,48,0,0,1,204,5.4c.15-.89.34-1.89,2-1.89C206.69,3.51,208.07,3.75,208.07,5Zm19,4.69a24,24,0,0,1,2.41,10c0,.89,0,2.59-2.14,2.59-1.74,0-1.83-1.15-1.92-2.47a22.36,22.36,0,0,0-3-10.39c-.82-1.37-.88-1.46-.88-1.92a1.94,1.94,0,0,1,2-1.74C224,5.82,225.08,5.82,227,9.72Z"/><path d="M254,17.56a10.86,10.86,0,0,1-2.41,7.68c-1.49,1.74-4.48,3.69-6,3.69a2.17,2.17,0,0,1-2.07-2.17c0-.94.76-1.28,1.59-1.64a9.66,9.66,0,0,0,4.42-3.63,5.39,5.39,0,0,1-3.08.89c-3,0-5.79-2.32-5.79-6.28A6,6,0,0,1,247,9.82a6.11,6.11,0,0,1,3.23.82l-.06-2.23-8.2.22c-.74,0-4.42.12-4.61.12a1.75,1.75,0,0,1-2.07-1.89c0-1.13.64-1.68,1.8-1.74.73,0,4-.06,4.63-.06l8.39-.18-.07-2c0-.57,0-2,1.92-2a1.72,1.72,0,0,1,1.93,2l0,2,2.34-.07c.64,0,3.45-.15,4-.15.82,0,2.13.09,2.13,1.83s-1.07,1.71-1.49,1.74c-.61.06-3.94.06-4.67.09l-2.31.06Zm-6.77-4.42a2.74,2.74,0,0,0-2.77,3,2.73,2.73,0,0,0,2.74,2.95,2.76,2.76,0,0,0,2.77-3A2.67,2.67,0,0,0,247.26,13.14Z"/><path d="M284.45,9.63a34.71,34.71,0,0,0,5-1.28A4.75,4.75,0,0,1,291,8a1.71,1.71,0,0,1,1.64,1.86c0,1.15-.24,1.61-6.34,2.86.68,1.07,1.74,2.68,2.5,3.72,1.25,1.68,1.38,1.86,1.38,2.38a1.82,1.82,0,0,1-1.68,1.83,22.56,22.56,0,0,1-3.23-1c-.46-.15-1.77-.36-2.56-.52a1.27,1.27,0,0,1-1.28-1.4c0-.73.39-1.49,1.19-1.49.09,0,1.73.39,1.92.45-1.07-1.52-1.56-2.31-2.14-3.23a101.46,101.46,0,0,1-12.77,1.1c-.61,0-1.8,0-1.8-1.77S269.11,11,270.06,11a72.56,72.56,0,0,0,10.51-.73c-.73-1.28-.79-1.37-1.18-2.1a67.54,67.54,0,0,1-8.21.55c-1.21,0-2.53,0-2.53-1.77s1.25-1.68,2.05-1.71c4.66-.12,5.18-.15,7-.3-.73-1.49-.79-1.68-.79-2.17,0-1.28,1.31-1.73,2.22-1.73,1.16,0,1.22.15,2.62,3.35.76-.12,2.5-.49,4.18-.94a17.67,17.67,0,0,1,2.38-.58A1.7,1.7,0,0,1,290,4.66c0,.86,0,1.68-6.67,2.9C284,8.81,284.11,9.08,284.45,9.63Zm-3.24,14.76a37.11,37.11,0,0,0,4.73-.34c.33,0,1.71-.24,1.89-.24a1.7,1.7,0,0,1,1.71,1.89,1.65,1.65,0,0,1-1.41,1.8,26.86,26.86,0,0,1-6.58.58c-3.51,0-11.68-.16-11.68-6.31,0-2.05,1.34-4.24,2.87-4.24.94,0,2.07.82,2.07,1.64,0,.37-.06.46-.55,1.16a2,2,0,0,0-.36,1.28C273.9,24.05,278.23,24.39,281.21,24.39Z"/><path d="M306.29,28.08a2.59,2.59,0,0,1-2.07-1.38,46.06,46.06,0,0,0-4.3-5,1.94,1.94,0,0,1-.67-1.43,2.19,2.19,0,0,1,2.2-2c.67,0,1.13.24,2.28,1.37a47.35,47.35,0,0,1,4.51,5,2.07,2.07,0,0,1,.46,1.22A2.42,2.42,0,0,1,306.29,28.08Z"/><path d="M342.38,10.85c.12-1,.55-1.77,1.77-1.77,1.92,0,2.13,1.16,2.13,1.89a26,26,0,0,1-1.15,6.47,27,27,0,0,1,2.56,1.95c.79.67,1,1,1,1.67a2.25,2.25,0,0,1-1.89,2.32c-.7,0-.94-.18-3.2-2-2.28,4.42-6.1,7.1-7.44,7.1a2.14,2.14,0,0,1-2-2c0-.73.15-.88,1.8-2.13A14.58,14.58,0,0,0,340.37,19a26.36,26.36,0,0,0-6.1-3,54.32,54.32,0,0,1-2.92,5.12c-1.92,3-3.42,4.67-5.67,4.67s-4-2.14-4-5.09a8.94,8.94,0,0,1,8.9-9,10.42,10.42,0,0,1,1.65.16c.46-1.07,1.16-2.59,2.13-5.34-2.31.18-5.24.34-6.34.34s-2.37,0-2.37-1.92,1.4-1.95,2.65-1.95l2.83.06a30.08,30.08,0,0,0,4.27-.28c.28,0,1.49-.24,1.74-.24a2.27,2.27,0,0,1,2.19,1.83c0,.33-.36,1.13-3.41,8.26a36.91,36.91,0,0,1,5.76,2.68A27.32,27.32,0,0,0,342.38,10.85Zm-17.22,9.79c0,.24,0,1.06.61,1.06,1.1,0,3.57-4.45,4.57-6.4C326.9,15.12,325.16,18.41,325.16,20.64Z"/><path d="M363.23,5.64a32.15,32.15,0,0,1,7.37-1c7.9,0,10.67,5.37,10.67,10,0,2.93-1,8.66-8.47,10.79a37.41,37.41,0,0,1-8.51,1.25A2,2,0,0,1,362,24.51c0-1.71,1.09-1.77,2.8-1.89,6.86-.43,12.23-2.26,12.23-8.14,0-4.21-3.18-5.94-6.38-5.94s-8.17,1.28-11.06,2.07a22.46,22.46,0,0,1-3.05.76,2.11,2.11,0,0,1-2-2.32c0-1.09.52-1.73,2.19-2.07Z"/><path d="M395.62,8.29c.22-.85.95-5.15,1-5.52a1.56,1.56,0,0,1,1.77-1.34c.88,0,2.13.34,2.13,1.47a45.73,45.73,0,0,1-.94,5c6.83-.24,8.23,3.17,8.23,8.36,0,11.09-3.6,11.52-6.8,11.52s-4.18-.67-4.18-2.16c0-.19,0-1.89,1.5-1.89.36,0,1.95.21,2.25.21,1.41,0,3.3,0,3.3-7.56,0-2.87-.13-4.88-3.48-4.88-.43,0-.64,0-1.74.09-1.58,5.43-2.92,9.91-5.48,14.45-.58,1.07-.89,1.59-1.89,1.59s-2.2-.67-2.2-1.86c0-.46.31-1,1-2.2A50.46,50.46,0,0,0,394.71,12c-1.52.21-2.5.37-3.29.49a9.38,9.38,0,0,1-1.5.18,1.68,1.68,0,0,1-1.67-1.86c0-1.65,1-1.77,2.07-1.89Zm16.53.28A20.3,20.3,0,0,1,415,17.13C415,19,413,19,412.76,19c-1.53,0-1.62-.7-1.89-2.53a19.65,19.65,0,0,0-3.2-7.68c-.89-1.25-1-1.37-1-1.77a1.92,1.92,0,0,1,2-1.86C409.28,5.15,410.11,5.15,412.15,8.57Z"/><path d="M426.37,6.49c-.79,0-2.13,0-2.13-1.83s1.53-1.89,2.32-1.89c3.32,0,4.6,0,8.72-.27.61,0,3.2-.31,3.71-.31a2.17,2.17,0,0,1,2.47,2.14c0,.76-.3,1-3,2.92-1.89,1.35-3.78,2.72-5.58,4.21a12.3,12.3,0,0,1,3.84-.55c5.73,0,9,3.54,9,8.05,0,6.1-5.33,9.39-11,9.39-3.42,0-8.39-1.25-8.39-5.18,0-2.23,1.71-4.57,5.37-4.57a8.54,8.54,0,0,1,7.74,5,5.29,5.29,0,0,0,2.32-4.45c0-5.06-5.46-5.06-6.46-5.06a14,14,0,0,0-9.45,3.9c-2.17,2-2.26,2.05-2.93,2.05a2.1,2.1,0,0,1-2-2.05c0-.82.52-1.21,1.7-2.13.77-.58,4-3.29,4.67-3.84l7.5-6.13C432.53,6.13,428.51,6.49,426.37,6.49Zm5.13,15.34a1.44,1.44,0,0,0-1.62,1.34c0,1.13,2,1.92,4.36,1.92a10.09,10.09,0,0,0,1.77-.15C434.45,21.83,432,21.83,431.5,21.83Z"/><path class="cls-1" d="M5.55,69c-.43,4.58-.44,4.61-2.4,4.71H0V87.08H3.24c8.53-.24,12.71-2.52,14.63-9,11.74,3.43,9.76,4.41,23.77,9.71-3.18,5.65-3.71,8.56-20.45,8.78H7.66V109.9H21.21c17.36-.07,21.83-3,28.78-10.39l0-.06C57.27,91,59.86,81.57,59.93,63.4V44.45H8ZM20.49,57.84H46.12V63.4a73.12,73.12,0,0,1-.58,11.7c-10.13-3.69-9.58-5.24-21-8.76l-4.78-1.53Z"/><path class="cls-1" d="M96.33,43.51H82.48l-1,8.6H64.94V65.49h15L77.42,86.6c-.6,5.1-1,8.05-1.66,9.19-.33.55-.78.69-3.48.73H64.72V109.9H72.3c7.4-.07,11.73-.86,14.92-5l.12-.18c2.15-3.66,2.47-5.15,3.87-17.74l2.52-21.51h18.42V85.24c-.06,3.81-.16,9.55-.69,10.26l-.1.07a12,12,0,0,1-5.36,1H94.87V109.9h12.32c7.82-.08,12.3-1.7,15.5-5.63,2.56-3.31,3.2-6.8,3.28-17.83V52.11H95.31Z"/><path class="cls-1" d="M130.75,76.38H178.1v2c0,7.87-1.49,11.88-5.21,14.3-3.92,2.55-10.75,3.66-23.53,3.81H137.24V109.9h12.14c17.35-.23,26.88-2.16,32.86-6.68,6.7-4.76,9.68-12.41,9.68-24.8V63H130.75Z"/><rect class="cls-1" x="134.98" y="43.58" width="52.72" height="13.38"/><path class="cls-1" d="M212.61,63.76V43.51H198.79V109.9h13.82V77.43C224.4,80,228.23,82.46,245,87.8l2,.64,1.38-13.58-1.35-.43C232.55,69.83,228.84,67.47,212.61,63.76Z"/><path class="cls-1" d="M298.35,87.23l1.61.44L303.9,75l-1.7-.49c-16-4.6-18.59-6.25-42.88-10.4l-1.55-.26-3.49,12.85,2.52.31C281.49,81.52,280.85,82.48,298.35,87.23Z"/><path class="cls-1" d="M260.84,56.28c24.4,4.35,25,5.55,41.38,9.88l1.67.45,3.45-12.74-1.66-.46C285.86,48,289.54,47.7,263.4,43.31l-1.56-.26-3.31,12.58,2.14.61Z"/><path class="cls-1" d="M255.75,86.91l-1.5-.2-3.46,12.94,2.54.32c30,4,35.91,5.9,53.58,10.39l1.66.42,3.36-12.84-1.71-.42C291.14,92.83,282.24,90.36,255.75,86.91Z"/><rect class="cls-1" x="310.72" y="68.95" width="35.27" height="13.6"/><path class="cls-1" d="M382.55,57.76h29.63V44.38h-58.4V57.76h15v8.79H352.4V79.93h16.33V91.67c-.08,7.74,2.09,12,7.72,15.23,3.73,2.14,9.37,2.92,21.58,3h14.15V96.52H398c-15.2-.15-15.28-.69-15.49-4.88V79.93h31V66.55h-31Z"/><rect class="cls-1" x="420.09" y="68.95" width="35.27" height="13.6"/><path class="cls-1" d="M506.88,66V80.45c0,7.26-.73,11.08-2.39,13.19-1.45,1.82-3.89,2.65-8.51,2.84V43.58H482.16V109.9h13c8.4,0,14.48-2,18.56-6,4.73-4.67,6.93-12.1,6.93-23.38V67.2Z"/><path class="cls-1" d="M460.43,92.84c-.16,3.12-1.08,4-4.24,4h-3.34v13.31h3.39c12.52-.39,17.07-4.69,18-17.06l3.64-48.24H464.06Z"/></svg>