<svg id="レイヤー_1" data-name="レイヤー 1" xmlns="http://www.w3.org/2000/svg" viewBox="0 0 283.47 155.12"><defs><style>.cls-1{fill:#0052a4;}.cls-2{fill:#fff;}</style></defs><path class="cls-1" d="M28.43,0A28.5,28.5,0,0,0,0,28.42V126.7a28.51,28.51,0,0,0,28.43,28.42H255a28.51,28.51,0,0,0,28.43-28.42V28.42A28.51,28.51,0,0,0,255,0Z"/><path class="cls-2" d="M172.85,127.13H160.21l-6.44-22.52L149,127.13H137.07l10.12-47.25h13.26a5.41,5.41,0,0,1,5.22,4.05l5.25,18.39,6.37-22.44H192a5.44,5.44,0,0,1,5.31,4.28l9.2,43H186.83l-4.68-21.84-5.41,18.95A4.12,4.12,0,0,1,172.85,127.13Z"/><path class="cls-2" d="M237.35,111l17.21-31.1H241.3l-9.77,17.58-7.69-13.87a6.8,6.8,0,0,0-6-3.71h-18L217,111v16.13h20.34V111Z"/><path class="cls-2" d="M80.75,85.27v6.24h-16v35.62H44.39V91.51H28.9V79.88H75.35A5.39,5.39,0,0,1,80.75,85.27Z"/><path class="cls-2" d="M136.23,103.52c0,7.55-2.87,14.92-8.34,19.7-5,4.4-12.31,6.54-19.73,6.54s-14.7-2.14-19.72-6.54c-5.48-4.78-8.35-12.15-8.35-19.7s2.87-15,8.35-19.72c5-4.4,12.3-6.53,19.72-6.53s14.71,2.13,19.73,6.53c5.47,4.77,8.34,12.16,8.34,19.72M114.38,92a6.22,6.22,0,0,0-12.44,0c-.14,3.83-.22,7.68-.22,11.54s.08,7.69.22,11.52a6.22,6.22,0,0,0,12.44,0c.15-3.83.23-7.68.23-11.52S114.53,95.79,114.38,92Z"/><path class="cls-2" d="M254.46,67.85,241.05,30.92a2.86,2.86,0,0,0-2.51-1.77H227.6a2.87,2.87,0,0,0-2.52,1.77s-9.17,25.39-12.68,35h-1.5l-5.74-9a14.4,14.4,0,0,0,9.1-13.5c0-7.66-6.09-14.28-13.59-14.28H178.24V66h-1.85l-12.73-35a2.85,2.85,0,0,0-2.51-1.77H150.21a2.86,2.86,0,0,0-2.51,1.77s-7.23,20-11.23,31l-10.7-14.11,12-16.31a1.6,1.6,0,0,0-1.25-2.6h-8.11a4.54,4.54,0,0,0-3.08,1.44l-9.92,14.22V31a1.89,1.89,0,0,0-1.88-1.88h-8.29A1.89,1.89,0,0,0,103.42,31V66H102l-12.72-35a2.87,2.87,0,0,0-2.52-1.77H75.79a2.87,2.87,0,0,0-2.51,1.77S64.1,56.31,60.6,66H55V39.14H66a1.88,1.88,0,0,0,1.88-1.87V31A1.87,1.87,0,0,0,66,29.17H30.8a1.9,1.9,0,0,0-1.87,1.89v6.21a1.87,1.87,0,0,0,1.87,1.87H42.25V67.73a1.88,1.88,0,0,0,1.87,1.88H69.27a3,3,0,0,0,2.57-1.74L74,62.57a7.36,7.36,0,0,0,14.69.21l2,5.08a2.92,2.92,0,0,0,2.54,1.75h20.45a1.88,1.88,0,0,0,1.88-1.88V51.19L128,68.07a4.79,4.79,0,0,0,3.09,1.52l12.59,0a3,3,0,0,0,2.56-1.74l1.91-4.79.41-1c0,.13,0,.25,0,.37a7.16,7.16,0,0,0,14.32,0s0-.09,0-.13l.28.73L165,67.86a2.93,2.93,0,0,0,2.55,1.75h20.27a.77.77,0,0,0,.49,0,.92.92,0,0,0,.68-.86s0,0,0,0a.43.43,0,0,0,0,0V38.91h9.9a4.46,4.46,0,0,1,4,4.49,4.51,4.51,0,0,1-3.48,4.44H193a3,3,0,0,0-2.82,2.94,3.85,3.85,0,0,0,.7,1.9v0L201,69.61h20.09a3,3,0,0,0,2.57-1.74s1.91-4.75,1.91-4.72l.42-1.08c0,.12,0,.22,0,.33a7.15,7.15,0,0,0,14.3,0l.28.73s1.85,4.71,1.85,4.71a2.94,2.94,0,0,0,2.55,1.75h8.29a1.23,1.23,0,0,0,1.23-1.76M81.3,54.83a7.34,7.34,0,0,0-5.1,2.06l5.19-13,5,13a7.35,7.35,0,0,0-5.08-2.05m74.41.41a7.16,7.16,0,0,0-5.44,2.51l5.53-13.9,5.31,13.87a7.14,7.14,0,0,0-5.4-2.48m77.4,0a7.15,7.15,0,0,0-5.45,2.53l5.52-13.92,5.32,13.86A7.11,7.11,0,0,0,233.11,55.24Z"/></svg>