<svg id="レイヤー_1" data-name="レイヤー 1" xmlns="http://www.w3.org/2000/svg" viewBox="0 0 79.99 56.36"><defs><style>.cls-1{fill:red;}.cls-2{fill:#fff;}</style></defs><path class="cls-1" d="M78.32,8.8a10.07,10.07,0,0,0-7.07-7.12C65,0,40,0,40,0S15,0,8.74,1.68A10.07,10.07,0,0,0,1.67,8.8C0,15.08,0,28.18,0,28.18s0,13.1,1.67,19.38a10.07,10.07,0,0,0,7.07,7.12C15,56.36,40,56.36,40,56.36s25,0,31.25-1.68a10.07,10.07,0,0,0,7.07-7.12C80,41.28,80,28.18,80,28.18S80,15.08,78.32,8.8Z"/><polygon class="cls-2" points="31.82 40.07 52.72 28.18 31.82 16.29 31.82 40.07"/></svg>