<svg xmlns="http://www.w3.org/2000/svg" viewBox="0 0 320 320"><defs><style>.cls-1{fill:#4cc764;}.cls-2{fill:#fff;}</style></defs><g id="レイヤー_2" data-name="レイヤー 2"><g id="LINE_LOGO" data-name="LINE LOGO"><circle class="cls-1" cx="160" cy="160" r="160"/><path class="cls-2" d="M266.7,150.68C266.7,102.89,218.79,64,159.89,64S53.08,102.89,53.08,150.68c0,42.85,38,78.74,89.33,85.52,3.48.75,8.21,2.29,9.41,5.27,1.07,2.7.7,6.93.34,9.65,0,0-1.25,7.54-1.52,9.15-.47,2.7-2.15,10.56,9.25,5.76s61.51-36.22,83.92-62h0C259.29,187,266.7,169.81,266.7,150.68Z"/><path class="cls-1" d="M231.17,178.28a2,2,0,0,0,2-2v-7.57a2,2,0,0,0-2-2H210.78v-7.87h20.39a2,2,0,0,0,2-2v-7.58a2,2,0,0,0-2-2H210.78v-7.87h20.39a2,2,0,0,0,2-2v-7.58a2,2,0,0,0-2-2h-30a2,2,0,0,0-2,2v0h0V176.2h0v0a2,2,0,0,0,2,2h30Z"/><path class="cls-1" d="M120.17,178.28a2,2,0,0,0,2-2v-7.57a2,2,0,0,0-2-2H99.77v-37a2,2,0,0,0-2-2H90.16a2,2,0,0,0-2,2V176.2h0v0a2,2,0,0,0,2,2h30Z"/><rect class="cls-1" x="128.62" y="127.58" width="11.65" height="50.69" rx="2.04"/><path class="cls-1" d="M189.8,127.58h-7.57a2,2,0,0,0-2,2v27.69l-21.33-28.8a1.2,1.2,0,0,0-.17-.21v0l-.12-.12,0,0-.11-.09-.06,0-.1-.08-.07,0-.11-.06-.06,0-.12,0-.07,0-.12,0-.08,0-.12,0h-.08l-.11,0h-7.72a2,2,0,0,0-2,2v46.62a2,2,0,0,0,2,2h7.58a2,2,0,0,0,2-2V148.56l21.35,28.84a2,2,0,0,0,.53.51l0,0,.13.08.06,0,.1.05.1,0,.06,0,.15,0h0a2.35,2.35,0,0,0,.54.07h7.53a2,2,0,0,0,2-2V129.62A2,2,0,0,0,189.8,127.58Z"/></g></g></svg>