<svg id="レイヤー_1" data-name="レイヤー 1" xmlns="http://www.w3.org/2000/svg" viewBox="0 0 42.5 42.5"><defs><style>.cls-1{fill:#0052a4;}</style></defs><path class="cls-1" d="M42.49,20.58l-1.78.06,1.78-.06A21.27,21.27,0,0,0,21.26,0h-.68A21.25,21.25,0,0,0,0,21.24c0,.22,0,.45,0,.68A21.25,21.25,0,0,0,21.24,42.5h.68A21.27,21.27,0,0,0,42.5,21.26C42.5,21,42.5,20.81,42.49,20.58ZM8.54,9a17.51,17.51,0,0,1,5.79-4A20.55,20.55,0,0,0,12,9.57H8C8.16,9.36,8.35,9.16,8.54,9ZM6.28,11.84h5a36,36,0,0,0-1.19,8.27H3.61A17.55,17.55,0,0,1,6.28,11.84Zm0,18.82a17.71,17.71,0,0,1-2.67-8.27h6.48a34.94,34.94,0,0,0,1.18,8.27ZM9,34c-.34-.33-.67-.68-1-1h4a22.12,22.12,0,0,0,1.13,2.6,18.82,18.82,0,0,0,1.18,2A17.72,17.72,0,0,1,9,34Zm11.15,4.93c-.49,0-1-.08-1.46-.15-.2-.13-.4-.27-.6-.43a13.71,13.71,0,0,1-3.62-5.38h5.68v6Zm0-8.23H13.63a32.52,32.52,0,0,1-1.28-8.27h7.76v8.27Zm0-10.55H12.36a32.52,32.52,0,0,1,1.28-8.27h6.47Zm0-10.54H14.43c.23-.55.46-1.07.72-1.56a12.11,12.11,0,0,1,2.9-3.82,6.52,6.52,0,0,1,.59-.42,14.67,14.67,0,0,1,1.47-.16Zm16.11,2.27a17.67,17.67,0,0,1,2.67,8.27H32.41a34.94,34.94,0,0,0-1.18-8.27Zm-2.68-3.3c.34.33.67.68,1,1h-4A23,23,0,0,0,29.37,7a19.73,19.73,0,0,0-1.18-2A17.72,17.72,0,0,1,33.54,8.54ZM22.39,3.61c.49,0,1,.08,1.46.15.2.13.4.27.6.43a13.71,13.71,0,0,1,3.62,5.38H22.39Zm0,8.23h6.48a32.52,32.52,0,0,1,1.28,8.27H22.39Zm0,10.55h7.75a32.52,32.52,0,0,1-1.28,8.27H22.39Zm5,12.1a12.11,12.11,0,0,1-2.9,3.82c-.2.16-.4.29-.59.42a14.67,14.67,0,0,1-1.47.16v-6h5.68C27.84,33.48,27.61,34,27.35,34.49Zm6.61-1a17.66,17.66,0,0,1-5.79,4,20.55,20.55,0,0,0,2.33-4.59h4C34.34,33.14,34.15,33.34,34,33.54Zm2.26-2.88h-5a35.45,35.45,0,0,0,1.19-8.27h6.47A17.55,17.55,0,0,1,36.22,30.66Z"/></svg>