<svg width="40" height="41" viewBox="0 0 40 41" fill="none" xmlns="http://www.w3.org/2000/svg">
<path d="M40 20.22C40 9.17437 31.0456 0.219971 20 0.219971C8.9544 0.219971 0 9.17437 0 20.22C0 29.5992 6.4576 37.4696 15.1688 39.6312V26.332H11.0448V20.22H15.1688V17.5864C15.1688 10.7792 18.2496 7.62397 24.9328 7.62397C26.2 7.62397 28.3864 7.87277 29.2808 8.12077V13.6608C28.8088 13.6112 27.9888 13.5864 26.9704 13.5864C23.6912 13.5864 22.424 14.8288 22.424 18.0584V20.22H28.9568L27.8344 26.332H22.424V40.0736C32.3272 38.8776 40.0008 30.4456 40.0008 20.22H40Z" fill="#0866FF"/>
<path d="M27.8336 26.332L28.956 20.22H22.4232V18.0584C22.4232 14.8288 23.6904 13.5864 26.9696 13.5864C27.988 13.5864 28.808 13.6112 29.28 13.6608V8.12082C28.3856 7.87202 26.1992 7.62402 24.932 7.62402C18.2488 7.62402 15.168 10.7792 15.168 17.5864V20.22H11.044V26.332H15.168V39.6312C16.7152 40.0152 18.3336 40.22 19.9992 40.22C20.8192 40.22 21.628 40.1696 22.4224 40.0736V26.332H27.8328H27.8336Z" fill="white"/>
</svg>
